<?xml version="1.0" encoding="utf-8"?>
<!-- Generator: Adobe Illustrator 15.0.2, SVG Export Plug-In . SVG Version: 6.00 Build 0)  -->
<!DOCTYPE svg PUBLIC "-//W3C//DTD SVG 1.1//EN" "http://www.w3.org/Graphics/SVG/1.1/DTD/svg11.dtd" [
	<!ENTITY ns_extend "http://ns.adobe.com/Extensibility/1.0/">
	<!ENTITY ns_ai "http://ns.adobe.com/AdobeIllustrator/10.0/">
	<!ENTITY ns_graphs "http://ns.adobe.com/Graphs/1.0/">
	<!ENTITY ns_vars "http://ns.adobe.com/Variables/1.0/">
	<!ENTITY ns_imrep "http://ns.adobe.com/ImageReplacement/1.0/">
	<!ENTITY ns_sfw "http://ns.adobe.com/SaveForWeb/1.0/">
	<!ENTITY ns_custom "http://ns.adobe.com/GenericCustomNamespace/1.0/">
	<!ENTITY ns_adobe_xpath "http://ns.adobe.com/XPath/1.0/">
]>
<svg version="1.1" id="Layer_1" xmlns:x="&ns_extend;" xmlns:i="&ns_ai;" xmlns:graph="&ns_graphs;"
	 xmlns="http://www.w3.org/2000/svg" xmlns:xlink="http://www.w3.org/1999/xlink" x="0px" y="0px" width="43px" height="22.667px"
	 viewBox="0 0 43 22.667" enable-background="new 0 0 43 22.667" xml:space="preserve">
<metadata>
	<sfw  xmlns="&ns_sfw;">
		<slices></slices>
		<sliceSourceBounds  height="20.952" width="39.788" x="257.203" y="-810.347" bottomLeftOrigin="true"></sliceSourceBounds>
	</sfw>
</metadata>
<g>
	<path fill="#0096FF" d="M38.808,3.261c-0.825-0.725-1.755-1.082-2.771-1.346c-0.987-0.258-2.178-0.248-3.543-0.248h-5.135
		c-0.959,0-1.445,0.094-1.903,0.555C24.994,2.681,25,3.269,25,4.227v14.265c0,0.662-0.175,1.216-0.057,1.645
		c0.14,0.499,0.324,0.883,0.779,1.156c0.434,0.258,0.914,0.375,1.717,0.375h5.136c0.912,0,1.748-0.052,2.476-0.168
		c0.746-0.123,1.454-0.33,2.103-0.629c0.656-0.299,1.268-0.7,1.823-1.2c0.693-0.636,1.27-1.37,1.715-2.179
		c0.442-0.809,0.772-1.723,0.985-2.725c0.208-0.988,0.313-2.095,0.313-3.283C41.991,7.835,40.917,5.064,38.808,3.261z
		 M35.323,16.901c-0.25,0.222-0.552,0.394-0.899,0.518c-0.365,0.128-0.719,0.188-1.053,0.219c-0.355,0.033-0.862,0.029-1.5,0.029H29
		v-12h2.487c1.155,0,2.149-0.033,2.956,0.211c0.745,0.229,1.384,0.701,1.907,1.562c0.537,0.885,0.809,2.226,0.809,4.057
		C37.159,14.08,36.541,15.872,35.323,16.901z"/>
	<path fill="#0096FF" d="M19.429,19.196c0,0.909-0.224,1.61-0.672,2.088c-0.45,0.485-1.036,0.729-1.737,0.729
		c-0.718,0-1.3-0.249-1.734-0.745c-0.421-0.48-0.636-1.177-0.636-2.072v-6.127H6.983v6.127c0,0.909-0.226,1.61-0.672,2.088
		c-0.453,0.485-1.036,0.729-1.74,0.729c-0.716,0-1.298-0.249-1.734-0.745c-0.419-0.48-0.635-1.177-0.635-2.072V3.867
		c0-0.896,0.211-1.593,0.631-2.067c0.427-0.489,1.014-0.738,1.738-0.738c0.711,0,1.298,0.239,1.745,0.722
		c0.441,0.473,0.667,1.173,0.667,2.084v5.154h7.666V3.867c0-0.9,0.217-1.595,0.645-2.073c0.441-0.488,1.021-0.732,1.726-0.732
		c0.709,0,1.3,0.239,1.744,0.722c0.442,0.473,0.665,1.173,0.665,2.084V19.196z"/>
</g>
</svg>
