<?xml version="1.0" encoding="utf-8"?>
<!-- Generator: Adobe Illustrator 15.0.2, SVG Export Plug-In . SVG Version: 6.00 Build 0)  -->
<!DOCTYPE svg PUBLIC "-//W3C//DTD SVG 1.1//EN" "http://www.w3.org/Graphics/SVG/1.1/DTD/svg11.dtd" [
	<!ENTITY ns_extend "http://ns.adobe.com/Extensibility/1.0/">
	<!ENTITY ns_ai "http://ns.adobe.com/AdobeIllustrator/10.0/">
	<!ENTITY ns_graphs "http://ns.adobe.com/Graphs/1.0/">
	<!ENTITY ns_vars "http://ns.adobe.com/Variables/1.0/">
	<!ENTITY ns_imrep "http://ns.adobe.com/ImageReplacement/1.0/">
	<!ENTITY ns_sfw "http://ns.adobe.com/SaveForWeb/1.0/">
	<!ENTITY ns_custom "http://ns.adobe.com/GenericCustomNamespace/1.0/">
	<!ENTITY ns_adobe_xpath "http://ns.adobe.com/XPath/1.0/">
]>
<svg version="1.1" id="Layer_1" xmlns:x="&ns_extend;" xmlns:i="&ns_ai;" xmlns:graph="&ns_graphs;"
	 xmlns="http://www.w3.org/2000/svg" xmlns:xlink="http://www.w3.org/1999/xlink" x="0px" y="0px" width="39.75px"
	 height="36.375px" viewBox="0 0 39.75 36.375" enable-background="new 0 0 39.75 36.375" xml:space="preserve">
<metadata>
	<sfw  xmlns="&ns_sfw;">
		<slices></slices>
		<sliceSourceBounds  height="35.139" width="37.755" x="66.548" y="-821.902" bottomLeftOrigin="true"></sliceSourceBounds>
	</sfw>
</metadata>
<g>
	<path fill="#0096FF" d="M32.96,9.178c0.031,0.171,0.06,0.341,0.084,0.515c0.125-0.026,0.246-0.068,0.35-0.142l4.718-3.319
		c0.205-0.142,0.341-0.357,0.383-0.604c0.042-0.245-0.013-0.493-0.156-0.695c-0.285-0.407-0.895-0.515-1.302-0.228l-4.411,3.102
		c0.055,0.178,0.105,0.356,0.152,0.538C32.85,8.618,32.909,8.897,32.96,9.178z"/>
	<path fill="#0096FF" d="M39.133,13.68c-0.144-0.203-0.358-0.34-0.604-0.383l-5.39-0.938c-0.011,0.176-0.025,0.352-0.044,0.526
		c-0.029,0.27-0.065,0.54-0.109,0.809c-0.029,0.174-0.059,0.346-0.094,0.52l5.315,0.925c0.055,0.009,0.108,0.014,0.163,0.014
		c0.454,0,0.841-0.325,0.918-0.773C39.332,14.132,39.276,13.884,39.133,13.68z"/>
	<path fill="#0096FF" d="M32.729,16.729c-0.11-0.155-0.269-0.267-0.444-0.329c-0.059,0.165-0.121,0.328-0.185,0.49
		c-0.105,0.268-0.216,0.534-0.337,0.798c-0.083,0.184-0.171,0.364-0.261,0.544l3.017,4.288c0.143,0.204,0.358,0.341,0.605,0.384
		c0.053,0.011,0.107,0.016,0.161,0.016c0.195,0,0.381-0.062,0.536-0.171c0.205-0.144,0.342-0.358,0.385-0.605
		c0.042-0.246-0.014-0.494-0.158-0.697L32.729,16.729z"/>
	<path fill="#0096FF" d="M2.739,6.231l4.716,3.317C7.513,9.59,7.576,9.615,7.639,9.641c0.026-0.182,0.059-0.361,0.092-0.54
		c0.056-0.29,0.119-0.578,0.194-0.859C7.974,8.06,8.024,7.883,8.08,7.705l-4.266-3c-0.409-0.287-1.018-0.18-1.302,0.226
		C2.369,5.135,2.313,5.383,2.356,5.629C2.398,5.874,2.535,6.09,2.739,6.231z"/>
	<path fill="#0096FF" d="M7.702,13.723c-0.045-0.271-0.084-0.539-0.113-0.809c-0.021-0.175-0.035-0.352-0.047-0.525l-5.219,0.908
		c-0.247,0.043-0.461,0.18-0.605,0.385c-0.143,0.203-0.198,0.451-0.156,0.695c0.079,0.449,0.465,0.774,0.92,0.774
		c0.054,0,0.108-0.005,0.161-0.014l5.155-0.897C7.764,14.068,7.731,13.896,7.702,13.723z"/>
	<path fill="#0096FF" d="M8.621,16.967c-0.067-0.167-0.132-0.335-0.192-0.505c-0.12,0.064-0.226,0.153-0.306,0.267l-3.319,4.717
		c-0.143,0.203-0.199,0.451-0.157,0.698c0.043,0.247,0.18,0.462,0.379,0.602c0.159,0.112,0.345,0.174,0.539,0.174
		c0.056,0,0.109-0.005,0.162-0.016c0.247-0.043,0.461-0.178,0.604-0.383l2.923-4.154c-0.091-0.18-0.18-0.359-0.264-0.54
		C8.859,17.543,8.736,17.256,8.621,16.967z"/>
	<path fill="#0096FF" d="M20.337,0.889c-5.915,0-10.727,4.744-10.727,10.576c0,2.977,1.245,6.219,3.337,8.703
		c0.021,0.031,0.045,0.063,0.07,0.094c0.636,0.785,2.453,3.408,2.453,5.109c0,0.728,0.59,1.316,1.316,1.316h7.104
		c0.011,0,0.022,0,0.034,0c0.174,0,0.349-0.033,0.515-0.105c0.487-0.206,0.802-0.684,0.802-1.211c0-1.512,1.504-3.937,2.453-5.109
		c0.057-0.07,0.105-0.146,0.146-0.228c2.025-2.465,3.227-5.645,3.227-8.569C31.067,5.633,26.254,0.889,20.337,0.889z M25.644,18.556
		c-0.077,0.088-0.139,0.187-0.187,0.29c-0.585,0.763-2.176,2.983-2.688,5.209h-4.826c-0.542-2.354-2.291-4.702-2.781-5.325
		c-0.035-0.057-0.075-0.111-0.12-0.162c-1.727-2.005-2.799-4.726-2.799-7.103c0-4.381,3.632-7.944,8.094-7.944
		c4.465,0,8.096,3.563,8.096,7.944C28.434,13.837,27.365,16.555,25.644,18.556z"/>
	<path fill="#0096FF" d="M23.308,28.88H17.37c-0.582,0-1.054,0.472-1.054,1.054v4.075c0,0.581,0.472,1.053,1.054,1.053h1.004
		l0.523,0.602c0.199,0.231,0.49,0.364,0.795,0.364h1.292c0.306,0,0.596-0.133,0.795-0.364l0.523-0.602h1.005
		c0.582,0,1.053-0.472,1.053-1.053v-4.075C24.361,29.352,23.89,28.88,23.308,28.88z"/>
</g>
</svg>
