<?xml version="1.0" encoding="utf-8"?>
<!-- Generator: Adobe Illustrator 15.0.2, SVG Export Plug-In . SVG Version: 6.00 Build 0)  -->
<!DOCTYPE svg PUBLIC "-//W3C//DTD SVG 1.1//EN" "http://www.w3.org/Graphics/SVG/1.1/DTD/svg11.dtd" [
	<!ENTITY ns_extend "http://ns.adobe.com/Extensibility/1.0/">
	<!ENTITY ns_ai "http://ns.adobe.com/AdobeIllustrator/10.0/">
	<!ENTITY ns_graphs "http://ns.adobe.com/Graphs/1.0/">
	<!ENTITY ns_vars "http://ns.adobe.com/Variables/1.0/">
	<!ENTITY ns_imrep "http://ns.adobe.com/ImageReplacement/1.0/">
	<!ENTITY ns_sfw "http://ns.adobe.com/SaveForWeb/1.0/">
	<!ENTITY ns_custom "http://ns.adobe.com/GenericCustomNamespace/1.0/">
	<!ENTITY ns_adobe_xpath "http://ns.adobe.com/XPath/1.0/">
]>
<svg version="1.1" id="Layer_1" xmlns:x="&ns_extend;" xmlns:i="&ns_ai;" xmlns:graph="&ns_graphs;"
	 xmlns="http://www.w3.org/2000/svg" xmlns:xlink="http://www.w3.org/1999/xlink" x="0px" y="0px" width="25.333px"
	 height="36.667px" viewBox="0 0 25.333 36.667" enable-background="new 0 0 25.333 36.667" xml:space="preserve">
<metadata>
	<sfw  xmlns="&ns_sfw;">
		<slices></slices>
		<sliceSourceBounds  height="32.973" width="21.81" x="106" y="-818" bottomLeftOrigin="true"></sliceSourceBounds>
	</sfw>
</metadata>
<g>
	<path fill="#0096FF" d="M23.002,15h-0.646h-1.94h-0.749v0.312v0.646v6.475c0,4.671-3.562,6.336-7,6.336s-7-1.665-7-6.336v-6.475
		v-0.646V15H4.899h-1.94H2.313c-0.355,0-0.646,0.124-0.646,0.479c0,0.356,0.641,0.61,0.991,0.669l1.009,0.026v6.259
		c0,5.052,2,7.813,6,8.645v1.519c-1,0.328-4.356,0.905-4.356,1.764c0,1.45,0.103,0.85,0.103,0.85c0,0.436,0.465,0.791,0.91,0.791
		h6.335h6.303c0.444,0,0.816-0.355,0.816-0.791c0,0,0.221,0.601,0.221-0.85c0-0.857-3.331-1.434-4.331-1.762v-1.521
		c4-0.832,6-3.593,6-8.645v-6.259l1-0.109c0.351-0.059,0.81-0.229,0.81-0.586C23.476,15.124,23.357,15,23.002,15z"/>
	<rect x="12.011" y="8.199" fill="#0096FF" width="1.293" height="1.294"/>
	<rect x="13.304" y="14.665" fill="#0096FF" width="1.293" height="1.293"/>
	<rect x="13.304" y="12.079" fill="#0096FF" width="1.293" height="1.293"/>
	<rect x="13.304" y="9.493" fill="#0096FF" width="1.293" height="1.293"/>
	<rect x="9.425" y="8.199" fill="#0096FF" width="1.293" height="1.294"/>
	<rect x="9.425" y="13.372" fill="#0096FF" width="1.293" height="1.293"/>
	<rect x="9.425" y="10.786" fill="#0096FF" width="1.293" height="1.293"/>
	<rect x="12.011" y="10.786" fill="#0096FF" width="1.293" height="1.293"/>
	<rect x="10.718" y="9.493" fill="#0096FF" width="1.293" height="1.293"/>
	<rect x="13.304" y="17.251" fill="#0096FF" width="1.293" height="1.293"/>
	<rect x="9.425" y="15.958" fill="#0096FF" width="1.293" height="1.293"/>
	<rect x="12.011" y="15.958" fill="#0096FF" width="1.293" height="1.293"/>
	<rect x="12.011" y="13.372" fill="#0096FF" width="1.293" height="1.293"/>
	<rect x="10.718" y="17.251" fill="#0096FF" width="1.293" height="1.293"/>
	<rect x="10.718" y="12.079" fill="#0096FF" width="1.293" height="1.293"/>
	<rect x="10.718" y="14.665" fill="#0096FF" width="1.293" height="1.293"/>
	<rect x="9.425" y="18.544" fill="#0096FF" width="1.293" height="1.293"/>
	<path fill="#0096FF" d="M12.657,27.595c1.906,0,3.688-0.92,4.749-2.336c0.725-0.845,1.26-1.941,1.26-3.141V8.847
		c0-3.215-2.786-5.819-6-5.819s-6,2.604-6,5.819v13.271c0,1.199,0.526,2.296,1.251,3.141C8.979,26.675,10.751,27.595,12.657,27.595z
		 M8.667,18h1v-1h-1v-1h1v-1h-1v-2h1v-1h-1v-1h1v-1h-1V8h1V7h1v1h1V7h2v1h1V7h1v1h1v2h-1v1h1v1h-1v1h1v2h-1v1h1v1h-1v1h1v2h-1v1h-1
		v-1h-1v1h-2v-1h-1v1h-1v-1h-1V18z"/>
	<rect x="14.597" y="15.958" fill="#0096FF" width="1.293" height="1.293"/>
	<rect x="14.597" y="13.372" fill="#0096FF" width="1.293" height="1.293"/>
	<rect x="14.597" y="18.544" fill="#0096FF" width="1.293" height="1.293"/>
	<rect x="14.597" y="8.199" fill="#0096FF" width="1.293" height="1.294"/>
	<rect x="14.597" y="10.786" fill="#0096FF" width="1.293" height="1.293"/>
	<rect x="12.011" y="18.544" fill="#0096FF" width="1.293" height="1.293"/>
</g>
</svg>
