<?xml version="1.0" encoding="utf-8"?>
<!-- Generator: Adobe Illustrator 15.0.2, SVG Export Plug-In . SVG Version: 6.00 Build 0)  -->
<!DOCTYPE svg PUBLIC "-//W3C//DTD SVG 1.1//EN" "http://www.w3.org/Graphics/SVG/1.1/DTD/svg11.dtd" [
	<!ENTITY ns_extend "http://ns.adobe.com/Extensibility/1.0/">
	<!ENTITY ns_ai "http://ns.adobe.com/AdobeIllustrator/10.0/">
	<!ENTITY ns_graphs "http://ns.adobe.com/Graphs/1.0/">
	<!ENTITY ns_vars "http://ns.adobe.com/Variables/1.0/">
	<!ENTITY ns_imrep "http://ns.adobe.com/ImageReplacement/1.0/">
	<!ENTITY ns_sfw "http://ns.adobe.com/SaveForWeb/1.0/">
	<!ENTITY ns_custom "http://ns.adobe.com/GenericCustomNamespace/1.0/">
	<!ENTITY ns_adobe_xpath "http://ns.adobe.com/XPath/1.0/">
]>
<svg version="1.1" id="Layer_1" xmlns:x="&ns_extend;" xmlns:i="&ns_ai;" xmlns:graph="&ns_graphs;"
	 xmlns="http://www.w3.org/2000/svg" xmlns:xlink="http://www.w3.org/1999/xlink" x="0px" y="0px" width="37.334px"
	 height="35.334px" viewBox="0 0 37.334 35.334" enable-background="new 0 0 37.334 35.334" xml:space="preserve">
<metadata>
	<sfw  xmlns="&ns_sfw;">
		<slices></slices>
		<sliceSourceBounds  height="33.237" width="35.205" x="305.594" y="-802.538" bottomLeftOrigin="true"></sliceSourceBounds>
	</sfw>
</metadata>
<g>
	<path fill="#0096FF" d="M20.141,14.619l-1.278-3.637l-1.279,3.639c-0.416,1.184-1.537,1.996-2.791,2.022l-3.811,0.076l3.01,2.258
		c1.016,0.765,1.448,2.092,1.077,3.305l-1.108,3.626l3.188-2.195c0.504-0.348,1.098-0.534,1.715-0.534
		c0.617,0,1.212,0.187,1.718,0.536l3.184,2.191l-1.108-3.624c-0.372-1.212,0.06-2.54,1.074-3.304l3.013-2.259l-3.809-0.076
		C21.677,16.617,20.556,15.805,20.141,14.619z"/>
	<path fill="#0096FF" d="M36.422,13.601c-0.115-0.361-0.448-0.608-0.828-0.617l-11.964-0.24l-3.927-11.18
		c-0.125-0.356-0.462-0.596-0.84-0.596c-0.377,0-0.714,0.239-0.839,0.596l-3.927,11.18l-11.965,0.24
		c-0.379,0.009-0.712,0.256-0.828,0.617s0.009,0.757,0.313,0.984l9.528,7.149L7.682,33.056c-0.11,0.361,0.02,0.754,0.326,0.978
		c0.304,0.223,0.719,0.23,1.03,0.015l9.825-6.766l9.827,6.766c0.152,0.106,0.329,0.157,0.505,0.157c0.184,0,0.369-0.058,0.525-0.172
		c0.305-0.224,0.435-0.616,0.324-0.979l-3.465-11.32l9.53-7.149C36.413,14.357,36.539,13.962,36.422,13.601z M25.013,20.686
		c-0.299,0.225-0.426,0.613-0.316,0.972l2.9,9.479l-8.23-5.666c-0.151-0.105-0.328-0.157-0.504-0.157
		c-0.176,0-0.352,0.052-0.504,0.157l-8.229,5.667l2.899-9.48c0.11-0.358-0.018-0.747-0.317-0.972l-7.963-5.975l10.001-0.202
		c0.371-0.007,0.698-0.244,0.821-0.595l3.293-9.373l3.292,9.373c0.123,0.351,0.451,0.588,0.821,0.595l10.002,0.202L25.013,20.686z"
		/>
</g>
</svg>
