<?xml version="1.0" encoding="utf-8"?>
<!-- Generator: Adobe Illustrator 15.0.2, SVG Export Plug-In . SVG Version: 6.00 Build 0)  -->
<!DOCTYPE svg PUBLIC "-//W3C//DTD SVG 1.1//EN" "http://www.w3.org/Graphics/SVG/1.1/DTD/svg11.dtd" [
	<!ENTITY ns_extend "http://ns.adobe.com/Extensibility/1.0/">
	<!ENTITY ns_ai "http://ns.adobe.com/AdobeIllustrator/10.0/">
	<!ENTITY ns_graphs "http://ns.adobe.com/Graphs/1.0/">
	<!ENTITY ns_vars "http://ns.adobe.com/Variables/1.0/">
	<!ENTITY ns_imrep "http://ns.adobe.com/ImageReplacement/1.0/">
	<!ENTITY ns_sfw "http://ns.adobe.com/SaveForWeb/1.0/">
	<!ENTITY ns_custom "http://ns.adobe.com/GenericCustomNamespace/1.0/">
	<!ENTITY ns_adobe_xpath "http://ns.adobe.com/XPath/1.0/">
]>
<svg version="1.1" id="Layer_1" xmlns:x="&ns_extend;" xmlns:i="&ns_ai;" xmlns:graph="&ns_graphs;"
	 xmlns="http://www.w3.org/2000/svg" xmlns:xlink="http://www.w3.org/1999/xlink" x="0px" y="0px" width="47px" height="41px"
	 viewBox="0 0 47 41" enable-background="new 0 0 47 41" xml:space="preserve">
<metadata>
	<sfw  xmlns="&ns_sfw;">
		<slices></slices>
		<sliceSourceBounds  y="-616.633" x="481.996" width="45.094" height="39.41" bottomLeftOrigin="true"></sliceSourceBounds>
	</sfw>
</metadata>
<g>
	<path fill="#0096FF" d="M44.69,1.056H2.729c-0.865,0-1.567,0.702-1.567,1.567V38.9c0,0.865,0.702,1.566,1.567,1.566H44.69
		c0.865,0,1.566-0.701,1.566-1.566V2.623C46.256,1.758,45.556,1.056,44.69,1.056z M4.294,37.334V6.89h38.831v30.444H4.294z"/>
	<path fill="#0096FF" d="M39.605,11.039H7.814c-0.519,0-0.939,0.42-0.939,0.94v3.453c0,0.518,0.42,0.939,0.939,0.939h31.791
		c0.519,0,0.938-0.421,0.938-0.939v-3.453C40.543,11.459,40.124,11.039,39.605,11.039z"/>
	<path fill="#0096FF" d="M21.439,18.948H7.719c-0.519,0-0.94,0.42-0.94,0.94v12.634c0,0.52,0.421,0.94,0.94,0.94h13.721
		c0.52,0,0.939-0.42,0.939-0.94V19.888C22.378,19.368,21.959,18.948,21.439,18.948z M20.5,31.583H8.659V20.827H20.5V31.583z"/>
	<path fill="#0096FF" d="M39.605,18.948H25.884c-0.518,0-0.94,0.42-0.94,0.94v12.634c0,0.52,0.422,0.94,0.94,0.94h13.721
		c0.519,0,0.938-0.42,0.938-0.94V19.888C40.543,19.368,40.124,18.948,39.605,18.948z M38.664,31.583H26.823V20.827h11.841V31.583z"
		/>
</g>
</svg>
