<?xml version="1.0" encoding="utf-8"?>
<!-- Generator: Adobe Illustrator 15.0.2, SVG Export Plug-In . SVG Version: 6.00 Build 0)  -->
<!DOCTYPE svg PUBLIC "-//W3C//DTD SVG 1.1//EN" "http://www.w3.org/Graphics/SVG/1.1/DTD/svg11.dtd" [
	<!ENTITY ns_extend "http://ns.adobe.com/Extensibility/1.0/">
	<!ENTITY ns_ai "http://ns.adobe.com/AdobeIllustrator/10.0/">
	<!ENTITY ns_graphs "http://ns.adobe.com/Graphs/1.0/">
	<!ENTITY ns_vars "http://ns.adobe.com/Variables/1.0/">
	<!ENTITY ns_imrep "http://ns.adobe.com/ImageReplacement/1.0/">
	<!ENTITY ns_sfw "http://ns.adobe.com/SaveForWeb/1.0/">
	<!ENTITY ns_custom "http://ns.adobe.com/GenericCustomNamespace/1.0/">
	<!ENTITY ns_adobe_xpath "http://ns.adobe.com/XPath/1.0/">
]>
<svg version="1.1" id="Layer_1" xmlns:x="&ns_extend;" xmlns:i="&ns_ai;" xmlns:graph="&ns_graphs;"
	 xmlns="http://www.w3.org/2000/svg" xmlns:xlink="http://www.w3.org/1999/xlink" x="0px" y="0px" width="242.333px" height="59px"
	 viewBox="0 0 242.333 59" enable-background="new 0 0 242.333 59" xml:space="preserve">
<metadata>
	<sfw  xmlns="&ns_sfw;">
		<slices></slices>
		<sliceSourceBounds  height="57.139" width="240.359" x="237.22" y="-570.418" bottomLeftOrigin="true"></sliceSourceBounds>
	</sfw>
</metadata>
<g>
	<g>
		<path fill="#0064D2" d="M155.967,1.334c-1.582,0-2.87,1.287-2.87,2.869s1.288,2.87,2.87,2.87c1.582,0,2.869-1.288,2.869-2.87
			S157.548,1.334,155.967,1.334"/>
		<polygon fill="#0064D2" points="153.906,46.374 153.906,14.929 158.031,14.929 158.031,16.71 158.031,46.374 		"/>
		<path fill="#0064D2" d="M190.951,46.374V27.558c0-3.708-0.969-6.397-2.906-8.064s-4.429-2.502-7.47-2.502
			c-1.667,0-3.273,0.262-4.816,0.782c-1.542,0.521-2.896,1.335-4.062,2.438c-1.167,1.104-2.094,2.501-2.781,4.19
			c-0.688,1.687-1.032,3.699-1.032,6.033v15.939h-4.125v-24.13c0-0.334-0.011-0.833-0.032-1.5c-0.021-0.668-0.042-1.365-0.063-2.096
			c-0.021-0.728-0.042-1.438-0.061-2.126c-0.023-0.686-0.032-1.218-0.032-1.594h3.938l0.25,6.815
			c0.291-0.709,0.76-1.512,1.406-2.408c0.646-0.895,1.521-1.739,2.625-2.53c1.104-0.792,2.427-1.459,3.968-2.002
			c1.542-0.54,3.336-0.813,5.377-0.813c4.252,0,7.636,1.084,10.159,3.251c2.521,2.168,3.783,5.563,3.783,10.19v18.941H190.951z"/>
		<path fill="#0064D2" d="M227.085,44.498c-2.764,1.876-6.562,2.813-11.386,2.813c-2.788,0-5.264-0.374-7.427-1.124
			c-2.162-0.751-3.992-1.844-5.49-3.283c-1.497-1.436-2.63-3.176-3.399-5.219c-0.771-2.042-1.155-4.355-1.155-6.938
			s0.425-4.907,1.278-6.971c0.852-2.064,2.06-3.823,3.619-5.282c1.562-1.459,3.443-2.573,5.647-3.346
			c2.205-0.771,4.66-1.156,7.364-1.156c2.039,0,3.94,0.22,5.71,0.656c1.768,0.438,3.337,1.095,4.711,1.97
			c1.371,0.875,2.517,1.99,3.43,3.346c0.917,1.354,1.541,2.946,1.875,4.781h-4.377c-0.5-2.5-1.729-4.417-3.689-5.75
			c-1.958-1.336-4.479-2.002-7.563-2.002c-1.919,0-3.699,0.303-5.346,0.907c-1.645,0.604-3.083,1.488-4.313,2.656
			c-1.229,1.168-2.199,2.604-2.906,4.313c-0.71,1.71-1.063,3.648-1.063,5.813c0,2.042,0.291,3.897,0.875,5.564
			c0.583,1.668,1.438,3.095,2.563,4.283c1.126,1.186,2.521,2.115,4.188,2.78c1.667,0.667,3.563,1,5.688,1
			c3.459,0,6.178-0.666,8.159-2c1.979-1.333,3.198-3.229,3.656-5.689h4.375C231.529,39.998,229.852,42.624,227.085,44.498"/>
		<path fill="#0064D2" d="M107.081,40.436v-14.6c0-8.973-7.166-11.992-15.65-11.992c-7.083,0-15.137,1.939-15.933,9.606h7.508
			c0.328-3.074,3.496-4.854,7.795-4.854c5.793,0,9.135,2.143,9.135,7.356v0.762c-2.824,0-6.237,0.009-9.278,0.078
			c-11.118,0.257-17.521,3-17.521,10.786c0,5.376,4.707,10.023,13.501,10.023c5.929,0,10.202-1.27,13.797-5.687
			c0,1.467,0.064,2.979,0.24,4.502h6.647C107.141,44.568,107.081,42.516,107.081,40.436z M99.936,32.2
			c0,6.701-4.002,10.787-11.498,10.787c-5.592,0-7.795-2.994-7.795-5.755c0-4.268,4.025-5.439,10.504-5.65
			c2.92-0.097,6.161-0.121,8.789-0.121V32.2z"/>
		<path fill="#0064D2" d="M36.856,30.632c0-11.514-7.386-16.788-17.465-16.788c-12.663,0-18.504,6.861-18.504,17.278
			c0,9.463,5.647,16.479,18.388,16.479c7.008,0,15.149-2.6,16.583-10.263h-7.37c-1.269,3.777-5.058,5.512-9.32,5.512
			c-6.146,0-10.62-3.833-11.006-10.318h28.694V30.632z M8.317,27.78c0.776-6.371,5.215-9.185,10.775-9.185
			c5.156,0,9.98,2.502,10.257,9.185H8.317z"/>
		<path fill="#0064D2" d="M57.071,13.844c-4.747,0-9.572,1.212-13.074,5.384L44,1.279h-7.144v37.759
			c0,2.285-0.122,5.109-0.243,7.378h7.011c0.16-1.402,0.243-2.887,0.243-4.357c3.008,3.684,7.888,5.543,13.072,5.543
			c9.904,0,16.936-7.073,16.936-16.789C73.875,19.217,65.033,13.844,57.071,13.844z M55.184,42.716
			C48.581,42.716,44,37.936,44,30.725c0-7.213,4.582-11.993,11.184-11.993c6.641,0,11.184,4.78,11.184,11.993
			C66.367,37.936,61.825,42.716,55.184,42.716z"/>
		<polygon fill="#0064D2" points="143.461,15.033 121.37,58.418 113.37,58.418 119.723,46.372 103.098,15.033 111.456,15.033 
			123.69,39.516 135.889,15.033 		"/>
		<path fill="#0064D2" d="M233.294,15.032h0.597v0.814h0.904v0.414h-0.904v1.768c0,0.328,0.091,0.505,0.463,0.505
			c0.112,0,0.288-0.013,0.461-0.036v0.416c-0.199,0.024-0.393,0.036-0.576,0.036c-0.603,0-0.946-0.195-0.946-0.879v-1.81h-0.803
			v-0.414h0.803V15.032z"/>
		<path fill="#0064D2" d="M235.591,16.541c0-0.231-0.015-0.452-0.025-0.694h0.558c0.011,0.153,0.025,0.328,0.025,0.542h0.012
			c0.35-0.469,0.791-0.659,1.292-0.659c0.517,0,0.939,0.253,1.118,0.77c0.219-0.421,0.697-0.77,1.267-0.77
			c0.87,0,1.41,0.426,1.41,1.425v1.759h-0.601v-1.534c0-0.746-0.215-1.234-0.865-1.234c-0.525,0-1.065,0.36-1.065,1.367v1.401
			h-0.594v-1.572c0-0.824-0.283-1.196-0.835-1.196c-0.525,0-1.102,0.378-1.102,1.282v1.486h-0.594V16.541z"/>
	</g>
</g>
</svg>
