<?xml version="1.0" encoding="utf-8"?>
<!-- Generator: Adobe Illustrator 15.0.2, SVG Export Plug-In . SVG Version: 6.00 Build 0)  -->
<!DOCTYPE svg PUBLIC "-//W3C//DTD SVG 1.1//EN" "http://www.w3.org/Graphics/SVG/1.1/DTD/svg11.dtd" [
	<!ENTITY ns_extend "http://ns.adobe.com/Extensibility/1.0/">
	<!ENTITY ns_ai "http://ns.adobe.com/AdobeIllustrator/10.0/">
	<!ENTITY ns_graphs "http://ns.adobe.com/Graphs/1.0/">
	<!ENTITY ns_vars "http://ns.adobe.com/Variables/1.0/">
	<!ENTITY ns_imrep "http://ns.adobe.com/ImageReplacement/1.0/">
	<!ENTITY ns_sfw "http://ns.adobe.com/SaveForWeb/1.0/">
	<!ENTITY ns_custom "http://ns.adobe.com/GenericCustomNamespace/1.0/">
	<!ENTITY ns_adobe_xpath "http://ns.adobe.com/XPath/1.0/">
]>
<svg version="1.1" id="Layer_1" xmlns:x="&ns_extend;" xmlns:i="&ns_ai;" xmlns:graph="&ns_graphs;"
	 xmlns="http://www.w3.org/2000/svg" xmlns:xlink="http://www.w3.org/1999/xlink" x="0px" y="0px" width="251.75px" height="87px"
	 viewBox="0 0 251.75 87" enable-background="new 0 0 251.75 87" xml:space="preserve">
<metadata>
	<sfw  xmlns="&ns_sfw;">
		<slices></slices>
		<sliceSourceBounds  height="84.252" width="250.003" x="305.196" y="-544.238" bottomLeftOrigin="true"></sliceSourceBounds>
	</sfw>
</metadata>
<g>
	<g>
		<path fill="#0064D2" d="M162.498,2.044c-1.646,0-2.985,1.339-2.985,2.983c0,1.646,1.339,2.984,2.985,2.984
			s2.984-1.339,2.984-2.984C165.482,3.383,164.144,2.044,162.498,2.044"/>
		<polygon fill="#0064D2" points="160.355,48.89 160.355,16.185 164.646,16.185 164.646,18.036 164.646,48.89 		"/>
		<path fill="#0064D2" d="M198.886,48.89v-19.57c0-3.856-1.007-6.654-3.023-8.388c-2.015-1.733-4.606-2.603-7.77-2.603
			c-1.734,0-3.405,0.272-5.009,0.813c-1.604,0.542-3.012,1.39-4.225,2.535c-1.213,1.149-2.178,2.602-2.893,4.359
			c-0.715,1.754-1.074,3.848-1.074,6.274V48.89h-4.292V23.793c0-0.348-0.011-0.867-0.033-1.562
			c-0.022-0.693-0.043-1.419-0.065-2.179c-0.021-0.757-0.043-1.495-0.063-2.211c-0.023-0.714-0.033-1.268-0.033-1.657h4.096
			l0.26,7.087c0.303-0.736,0.791-1.57,1.463-2.503c0.672-0.931,1.582-1.811,2.731-2.632c1.148-0.824,2.524-1.518,4.127-2.083
			c1.604-0.562,3.469-0.845,5.593-0.845c4.423,0,7.943,1.128,10.566,3.381c2.623,2.255,3.935,5.787,3.935,10.6v19.7H198.886z"/>
		<path fill="#0064D2" d="M236.471,46.939c-2.875,1.95-6.825,2.925-11.843,2.925c-2.899,0-5.475-0.388-7.726-1.168
			c-2.248-0.782-4.152-1.918-5.711-3.415c-1.556-1.493-2.735-3.305-3.535-5.429c-0.802-2.124-1.202-4.53-1.202-7.217
			c0-2.688,0.442-5.104,1.33-7.251c0.886-2.146,2.142-3.977,3.764-5.494c1.624-1.517,3.58-2.676,5.874-3.479
			c2.293-0.802,4.847-1.202,7.659-1.202c2.12,0,4.098,0.228,5.938,0.683c1.838,0.455,3.472,1.139,4.9,2.049
			c1.425,0.91,2.616,2.069,3.566,3.479c0.954,1.408,1.603,3.065,1.95,4.973h-4.553c-0.52-2.6-1.798-4.594-3.836-5.98
			c-2.036-1.389-4.66-2.082-7.867-2.082c-1.996,0-3.847,0.314-5.561,0.944c-1.711,0.629-3.207,1.548-4.486,2.761
			c-1.278,1.216-2.287,2.71-3.021,4.488c-0.74,1.778-1.106,3.793-1.106,6.046c0,2.124,0.304,4.054,0.91,5.788
			c0.607,1.734,1.495,3.22,2.666,4.455c1.171,1.233,2.622,2.2,4.356,2.892c1.733,0.694,3.705,1.042,5.916,1.042
			c3.599,0,6.426-0.693,8.487-2.081c2.058-1.388,3.326-3.358,3.803-5.918h4.551C241.093,42.259,239.348,44.99,236.471,46.939"/>
		<path fill="#0064D2" d="M111.651,42.714V27.528c0-9.333-7.454-12.473-16.278-12.473c-7.367,0-15.745,2.017-16.572,9.992h7.809
			c0.341-3.198,3.636-5.051,8.108-5.051c6.025,0,9.502,2.229,9.502,7.651v0.793c-2.937,0-6.488,0.009-9.65,0.081
			c-11.564,0.267-18.224,3.121-18.224,11.22c0,5.592,4.896,10.426,14.043,10.426c6.167,0,10.612-1.32,14.35-5.914
			c0,1.525,0.067,3.098,0.25,4.682h6.914C111.714,47.012,111.651,44.878,111.651,42.714z M104.219,34.148
			c0,6.97-4.163,11.22-11.959,11.22c-5.816,0-8.107-3.115-8.107-5.986c0-4.439,4.188-5.656,10.926-5.877
			c3.037-0.101,6.407-0.125,9.141-0.125V34.148z"/>
		<path fill="#0064D2" d="M38.609,32.518c0-11.977-7.683-17.462-18.167-17.462c-13.171,0-19.246,7.136-19.246,17.971
			c0,9.843,5.873,17.142,19.125,17.142c7.289,0,15.758-2.704,17.249-10.675h-7.665c-1.32,3.929-5.261,5.732-9.694,5.732
			c-6.393,0-11.046-3.986-11.448-10.732h29.846V32.518z M8.925,29.551c0.807-6.627,5.424-9.554,11.208-9.554
			c5.362,0,10.381,2.603,10.668,9.554H8.925z"/>
		<path fill="#0064D2" d="M59.635,15.056c-4.938,0-9.957,1.26-13.598,5.6l0.002-18.669h-7.43v39.274
			c0,2.377-0.127,5.314-0.253,7.674h7.292c0.167-1.459,0.253-3.004,0.253-4.532c3.129,3.832,8.205,5.766,13.597,5.766
			c10.301,0,17.615-7.358,17.615-17.463C77.113,20.644,67.916,15.056,59.635,15.056z M57.671,45.086
			c-6.868,0-11.632-4.972-11.632-12.473c0-7.502,4.765-12.475,11.632-12.475c6.907,0,11.632,4.973,11.632,12.475
			C69.304,40.114,64.579,45.086,57.671,45.086z"/>
		<polygon fill="#0064D2" points="149.491,16.292 126.513,61.418 118.192,61.418 124.8,48.888 107.508,16.292 116.202,16.292 
			128.927,41.757 141.615,16.292 		"/>
		<path fill="#0064D2" d="M242.928,16.291h0.621v0.847h0.941v0.431h-0.941v1.839c0,0.342,0.096,0.526,0.481,0.526
			c0.117,0,0.301-0.014,0.48-0.038v0.433c-0.206,0.025-0.408,0.037-0.599,0.037c-0.627,0-0.984-0.203-0.984-0.914v-1.883h-0.834
			v-0.431h0.834V16.291z"/>
		<path fill="#0064D2" d="M245.318,17.862c0-0.242-0.016-0.473-0.027-0.725h0.581c0.011,0.159,0.025,0.342,0.025,0.564h0.012
			c0.363-0.487,0.823-0.686,1.344-0.686c0.537,0,0.977,0.262,1.163,0.8c0.228-0.437,0.725-0.8,1.317-0.8
			c0.905,0,1.466,0.443,1.466,1.482v1.829h-0.625v-1.597c0-0.774-0.224-1.283-0.899-1.283c-0.546,0-1.107,0.376-1.107,1.423v1.457
			h-0.618v-1.635c0-0.858-0.295-1.245-0.868-1.245c-0.547,0-1.146,0.394-1.146,1.334v1.546h-0.617V17.862z"/>
	</g>
</g>
<g>
	<g>
		<path fill="#E9E9E9" d="M48.549,80.936c-0.088,1.143-0.417,1.98-0.989,2.512c-0.571,0.533-1.428,0.799-2.571,0.799
			c-1.357,0-2.339-0.449-2.944-1.348s-0.908-2.344-0.908-4.336c0-1.914,0.31-3.318,0.93-4.211c0.62-0.895,1.594-1.341,2.922-1.341
			c1.025,0,1.838,0.269,2.439,0.806s0.916,1.279,0.945,2.227h2.71c-0.049-1.572-0.588-2.803-1.619-3.691s-2.429-1.333-4.197-1.333
			c-2.168,0-3.87,0.667-5.105,1.999c-1.235,1.334-1.853,3.177-1.853,5.53c0.01,2.607,0.583,4.541,1.721,5.801s2.883,1.89,5.237,1.89
			c1.836,0,3.252-0.444,4.248-1.333s1.563-2.212,1.699-3.97l0,0l0,0l0,0l0,0H48.549z"/>
		<path fill="#E9E9E9" d="M75.652,84.524c0.225-0.283,0.425-0.581,0.601-0.894c0.02,0.479,0.054,0.889,0.103,1.23
			c0.059,0.518,0.142,0.84,0.249,0.967h2.519c-0.127-0.244-0.225-0.825-0.293-1.743c-0.068-0.918-0.103-2.061-0.103-3.428v-5.01
			c0-1.387-0.53-2.505-1.589-3.354s-2.454-1.274-4.182-1.274c-1.875,0-3.276,0.335-4.204,1.003c-0.928,0.67-1.445,1.727-1.553,3.172
			h2.783c0.059-0.684,0.332-1.219,0.82-1.604c0.488-0.387,1.133-0.579,1.934-0.579c1.171,0,2.02,0.21,2.547,0.63
			c0.527,0.42,0.791,1.089,0.791,2.007l0.003,1.216h-2.402c-2.247,0-4.009,0.432-5.289,1.297c-1.279,0.863-1.919,2.058-1.919,3.581
			c0,1.406,0.466,2.507,1.399,3.304c0.933,0.795,2.224,1.193,3.875,1.193l0,0l0,0l0,0l0,0l0,0l0,0l0,0
			C73.401,86.238,74.705,85.667,75.652,84.524L75.652,84.524z M76.079,79.91c-0.01,1.426-0.337,2.505-0.981,3.237
			s-1.616,1.099-2.915,1.099c-0.967,0-1.714-0.217-2.241-0.652c-0.527-0.434-0.791-1.047-0.791-1.838
			c0-0.977,0.374-1.709,1.121-2.197c0.747-0.488,1.873-0.732,3.377-0.732h2.432L76.079,79.91L76.079,79.91L76.079,79.91z"/>
		<path fill="#E9E9E9" d="M94.991,85.828h1.333h1.318v-7.324c0-1.748,0.332-3.02,0.996-3.816c0.664-0.795,1.733-1.193,3.208-1.193
			l0.542,0.029v-2.476l-0.718-0.029c-1.65-0.01-2.994,0.615-4.028,1.875v-1.465h-1.333h-1.318V85.828L94.991,85.828L94.991,85.828
			L94.991,85.828L94.991,85.828L94.991,85.828L94.991,85.828L94.991,85.828z"/>
		<path fill="#E9E9E9" d="M127.887,84.949c1.05-0.859,1.678-2.104,1.883-3.735h-2.74c-0.117,0.947-0.485,1.689-1.105,2.227
			s-1.414,0.806-2.381,0.806c-1.367,0-2.368-0.483-3.002-1.45c-0.557-0.85-0.87-2.095-0.938-3.735h10.268l0.029-0.967
			c0-2.305-0.537-4.061-1.611-5.266c-1.074-1.207-2.632-1.81-4.672-1.81c-2.11,0-3.768,0.696-4.974,2.087
			c-1.206,1.393-1.809,3.309-1.809,5.75c0,2.305,0.601,4.111,1.802,5.42s2.861,1.963,4.981,1.963l0,0l0,0l0,0l0,0
			C125.413,86.238,126.837,85.809,127.887,84.949z M119.632,77.083c0.117-1.123,0.429-2.026,0.938-2.71
			c0.674-0.908,1.616-1.362,2.827-1.362c1.396,0,2.383,0.391,2.959,1.172c0.459,0.615,0.732,1.582,0.82,2.9l0,0l0,0H119.632z"/>
		<path fill="#E9E9E9" d="M155.927,84.949c1.05-0.859,1.677-2.104,1.882-3.735h-2.738c-0.117,0.947-0.486,1.689-1.106,2.227
			s-1.413,0.806-2.38,0.806c-1.368,0-2.369-0.483-3.004-1.45c-0.557-0.85-0.869-2.095-0.938-3.735h10.27l0.029-0.967
			c0-2.305-0.538-4.061-1.611-5.266c-1.075-1.207-2.633-1.81-4.674-1.81c-2.109,0-3.767,0.696-4.973,2.087
			c-1.206,1.393-1.809,3.309-1.809,5.75c0,2.305,0.6,4.111,1.801,5.42s2.861,1.963,4.98,1.963l0,0l0,0l0,0l0,0
			C153.453,86.238,154.877,85.809,155.927,84.949z M147.672,77.083c0.117-1.123,0.43-2.026,0.938-2.71
			c0.674-0.908,1.617-1.362,2.828-1.362c1.396,0,2.382,0.391,2.959,1.172c0.459,0.615,0.732,1.582,0.82,2.9l0,0l0,0H147.672z"/>
		<path fill="#E9E9E9" d="M173.588,85.828h1.334h1.318v-7.324c0-1.748,0.331-3.02,0.996-3.816c0.663-0.795,1.732-1.193,3.207-1.193
			l0.543,0.029v-2.476l-0.719-0.029c-1.65-0.01-2.993,0.615-4.027,1.875v-1.465h-1.334h-1.318V85.828L173.588,85.828L173.588,85.828
			L173.588,85.828L173.588,85.828L173.588,85.828L173.588,85.828L173.588,85.828z"/>
		<path fill="#E9E9E9" d="M207.105,75.311c0-1.338-0.501-2.388-1.502-3.149s-2.38-1.143-4.137-1.143
			c-1.758,0-3.135,0.371-4.131,1.113s-1.494,1.768-1.494,3.076c0,1.035,0.287,1.855,0.863,2.461c0.585,0.605,1.541,1.089,2.868,1.45
			l2.927,0.791c0.752,0.205,1.308,0.464,1.668,0.776c0.366,0.313,0.549,0.693,0.549,1.143c0,0.771-0.293,1.367-0.878,1.787
			s-1.411,0.63-2.474,0.63c-1.016,0-1.812-0.242-2.387-0.725c-0.576-0.484-0.864-1.155-0.864-2.015h-2.739
			c0,1.543,0.51,2.718,1.53,3.522c1.021,0.807,2.507,1.209,4.46,1.209c1.865,0,3.327-0.412,4.387-1.238
			c1.06-0.824,1.589-1.96,1.589-3.405c0-1.035-0.321-1.865-0.964-2.49c-0.654-0.635-1.729-1.157-3.224-1.567l-2.93-0.791
			c-0.586-0.156-1.016-0.381-1.289-0.674c-0.283-0.293-0.425-0.664-0.425-1.113c0-0.615,0.259-1.094,0.775-1.436
			c0.518-0.342,1.244-0.513,2.182-0.513c0.908,0,1.617,0.205,2.131,0.615c0.512,0.41,0.768,0.972,0.768,1.685l0,0l0,0l0,0l0,0
			H207.105z"/>
	</g>
</g>
</svg>
