<?xml version="1.0" encoding="utf-8"?>
<!-- Generator: Adobe Illustrator 15.0.2, SVG Export Plug-In . SVG Version: 6.00 Build 0)  -->
<!DOCTYPE svg PUBLIC "-//W3C//DTD SVG 1.1//EN" "http://www.w3.org/Graphics/SVG/1.1/DTD/svg11.dtd" [
	<!ENTITY ns_extend "http://ns.adobe.com/Extensibility/1.0/">
	<!ENTITY ns_ai "http://ns.adobe.com/AdobeIllustrator/10.0/">
	<!ENTITY ns_graphs "http://ns.adobe.com/Graphs/1.0/">
	<!ENTITY ns_vars "http://ns.adobe.com/Variables/1.0/">
	<!ENTITY ns_imrep "http://ns.adobe.com/ImageReplacement/1.0/">
	<!ENTITY ns_sfw "http://ns.adobe.com/SaveForWeb/1.0/">
	<!ENTITY ns_custom "http://ns.adobe.com/GenericCustomNamespace/1.0/">
	<!ENTITY ns_adobe_xpath "http://ns.adobe.com/XPath/1.0/">
]>
<svg version="1.1" id="Layer_1" xmlns:x="&ns_extend;" xmlns:i="&ns_ai;" xmlns:graph="&ns_graphs;"
	 xmlns="http://www.w3.org/2000/svg" xmlns:xlink="http://www.w3.org/1999/xlink" x="0px" y="0px" width="133px" height="133px"
	 viewBox="0 0 133 133" enable-background="new 0 0 133 133" xml:space="preserve">
<metadata>
	<sfw  xmlns="&ns_sfw;">
		<slices></slices>
		<sliceSourceBounds  height="130.167" width="130.167" x="13.25" y="475.75" bottomLeftOrigin="true"></sliceSourceBounds>
	</sfw>
</metadata>
<path fill="#FF6726" d="M60.378,67.76L31.88,95.156c0,0-2.036,2.036-2.799,2.629c0,0-1.951,2.036,0,3.647
	c0,0,3.478,2.459,7.125-0.679l30.025-27.735c0,0,18.745,18.235,29.687,27.905c0,0,3.138,2.884,6.276,2.036
	c0,0,1.696-0.849,2.035-2.121c0,0,0.772-1.467-0.998-3.075c-0.085-0.078-0.177-0.155-0.274-0.232
	c-2.12-1.697-23.325-22.393-30.958-29.771l5.343-5.259c0,0,1.951-2.206,2.545-4.834c0,0,0.17-2.291,11.366-7.379l2.205,2.714
	c0,0,0.424,0.848,1.273,0.254c0,0,0.933-1.188,1.611-0.17l3.987,5.174c0,0,1.103,1.272,2.544,0.424c0,0,1.781-0.763,2.036-2.375
	c0,0,0.679-0.849-0.763-2.46l-17.218-23.07c0,0-2.036-1.019-2.799,0c-0.763,1.017-1.611,4.241,0.339,5.852l2.121,3.138
	c0,0,0.763,0.594,0.169,1.103c0,0-1.696,1.272-0.933,2.035l1.357,1.527c0,0-2.799,1.527-11.79,9.246l-9.246,8.481l-9.415-8.397
	c0,0-6.616-5.937-11.111-8.396l1.103-1.696c0,0,1.018-0.934-0.509-1.697c0,0-1.357-0.763-0.339-1.696l3.647-4.496
	c0,0,0.17-2.205-0.424-3.986c0,0-0.509-1.499-1.696-1.47c0,0-0.679-0.99-6.022,6.475L28.214,54.613c0,0-1.291,1.781,0,3.308
	c0,0,1.885,3.223,4.09,1.018l3.223-4.92c0,0,0.933-1.272,2.036-0.679c0,0,0.933,1.188,2.206-0.254l1.526-2.121
	c0,0,6.701,2.206,11.875,7.38C53.169,58.345,51.896,61.144,60.378,67.76z"/>
<g>
	<g>
		<path fill="#FF6726" d="M62.204,43.401c0.749,0.394,1.947,0.787,3.164,0.787c1.311,0,2.004-0.543,2.004-1.386
			c0-0.768-0.6-1.235-2.116-1.76c-2.097-0.749-3.482-1.91-3.482-3.763c0-2.153,1.816-3.782,4.774-3.782
			c1.441,0,2.471,0.281,3.22,0.636l-0.637,2.284c-0.487-0.243-1.404-0.599-2.621-0.599c-1.235,0-1.834,0.581-1.834,1.217
			c0,0.805,0.692,1.161,2.34,1.798c2.229,0.824,3.258,1.984,3.258,3.781c0,2.116-1.611,3.914-5.074,3.914
			c-1.442,0-2.864-0.394-3.576-0.787L62.204,43.401z"/>
	</g>
</g>
<g>
	<g>
		<path fill="#FF6726" d="M31.83,65.696c1.048-0.187,2.415-0.28,3.838-0.28c2.415,0,3.988,0.393,5.186,1.311
			c1.311,0.973,2.134,2.546,2.134,4.793c0,2.414-0.88,4.081-2.078,5.111c-1.329,1.104-3.37,1.628-5.841,1.628
			c-1.479,0-2.546-0.093-3.239-0.188V65.696z M34.676,75.975c0.243,0.056,0.655,0.056,0.992,0.056
			c2.603,0.019,4.306-1.404,4.306-4.418c0-2.715-1.535-4.007-4.007-4.007c-0.618,0-1.048,0.056-1.292,0.113V75.975z"/>
	</g>
</g>
<g>
	<g>
		<path fill="#FF6726" d="M100.791,77.791c-0.505,0.244-1.704,0.543-3.22,0.543c-4.363,0-6.609-2.733-6.609-6.347
			c0-4.306,3.07-6.684,6.89-6.684c1.479,0,2.603,0.299,3.108,0.562l-0.6,2.247c-0.561-0.244-1.367-0.468-2.396-0.468
			c-2.247,0-4.006,1.367-4.006,4.194c0,2.527,1.498,4.119,4.025,4.119c0.88,0,1.816-0.168,2.396-0.412L100.791,77.791z"/>
	</g>
</g>
<path fill="#FF6726" d="M67.333,2.083C31.389,2.083,2.25,31.221,2.25,67.166s29.139,65.084,65.083,65.084
	c35.946,0,65.084-29.139,65.084-65.084S103.279,2.083,67.333,2.083z M67.333,127.726c-33.446,0-60.56-27.113-60.56-60.56
	c0-33.447,27.114-60.56,60.56-60.56c33.447,0,60.561,27.113,60.561,60.56C127.894,100.613,100.78,127.726,67.333,127.726z"/>
</svg>
