<?xml version="1.0" encoding="utf-8"?>
<!-- Generator: Adobe Illustrator 15.0.2, SVG Export Plug-In . SVG Version: 6.00 Build 0)  -->
<!DOCTYPE svg PUBLIC "-//W3C//DTD SVG 1.1//EN" "http://www.w3.org/Graphics/SVG/1.1/DTD/svg11.dtd" [
	<!ENTITY ns_extend "http://ns.adobe.com/Extensibility/1.0/">
	<!ENTITY ns_ai "http://ns.adobe.com/AdobeIllustrator/10.0/">
	<!ENTITY ns_graphs "http://ns.adobe.com/Graphs/1.0/">
	<!ENTITY ns_vars "http://ns.adobe.com/Variables/1.0/">
	<!ENTITY ns_imrep "http://ns.adobe.com/ImageReplacement/1.0/">
	<!ENTITY ns_sfw "http://ns.adobe.com/SaveForWeb/1.0/">
	<!ENTITY ns_custom "http://ns.adobe.com/GenericCustomNamespace/1.0/">
	<!ENTITY ns_adobe_xpath "http://ns.adobe.com/XPath/1.0/">
]>
<svg version="1.1" id="Layer_1" xmlns:x="&ns_extend;" xmlns:i="&ns_ai;" xmlns:graph="&ns_graphs;"
	 xmlns="http://www.w3.org/2000/svg" xmlns:xlink="http://www.w3.org/1999/xlink" x="0px" y="0px" width="193.5px" height="88.5px"
	 viewBox="0 0 193.5 88.5" enable-background="new 0 0 193.5 88.5" xml:space="preserve">
<metadata>
	<sfw  xmlns="&ns_sfw;">
		<slices></slices>
		<sliceSourceBounds  y="356.665" x="210.751" width="190.037" height="85.526" bottomLeftOrigin="true"></sliceSourceBounds>
	</sfw>
</metadata>
<path id="backclear" fill="#10A2DC" d="M86.966,37.403c0-0.693-0.088-2.068-0.414-3.477c-0.227-0.943-0.486-1.886-0.779-2.807
	c0.509,1.734,0.436,2.959,0.436,3.424c0,2.125-2.647,15.09-28.546,17.451c-2.244,0.195-18.698,0.456-33.01-3.162
	c-9.522-2.405-19.077-7.064-20.885-13.531c-0.282-1.008-0.149-1.939,0.066-2.805c-0.727,2.577-1.213,5.275-1.44,8.039
	c0.161,6.802,6.076,14.729,16.897,18.153c12.371,3.892,19.966,4.021,37.946,0.011C87.248,52.007,86.966,38.866,86.966,37.403z
	 M20.222,73.599c-7.073-2.928-11.968-7.791-13.93-11.344c1.808,3.834,4.17,7.377,6.987,10.486c9.218,8.666,23.388,9.715,29.9,9.715
	c27.557,0,37.394-14.482,39.625-18.359c0.412-0.781,0.802-1.57,1.161-2.375C79.609,70.704,56.991,88.786,20.222,73.599z
	 M50.208,67.919c-8.342,0.295-23.021-2.576-32.272-6.359c-7.441-3.031-14.807-8.945-15.589-14.59
	c0.088,1.354,0.24,2.695,0.456,4.008C7.364,75.862,38.716,74.44,44.111,73.847c39.431-4.377,42.82-21.211,43.342-24.535
	c0.075-0.697,0.15-1.389,0.205-2.093C86.955,51.647,80.292,66.837,50.208,67.919 M14.559,17.603c0,3.899,5.664,10.127,22.098,10.127
	c9.74,0,17.604-1.885,23.541-3.855c9.522-3.164,14.232-7.031,14.061-9.911c-0.022-0.444-0.196-1.171-0.725-1.745
	c-2.114-1.896-4.42-3.585-6.882-5.026c1.627,0.942,2.548,2.048,2.548,3.272c0,4.289-10.486,8.221-24.181,8.579
	c-13.693,0.346-25.042-3.023-25.349-7.301c-0.097-1.421,0.92-2.817,2.861-4.052c-1.484,0.919-2.902,1.916-4.246,3
	C14.47,13.853,14.559,17.19,14.559,17.603z M5.75,29.714c0-1.832,0.26-3.109,0.747-4.26c0.834-1.699,1.766-3.346,2.808-4.916
	c-0.271,0.443-0.423,0.951-0.423,1.559c0,3.976,9.738,9.145,23.032,10.833c4.506,0.575,16.432,2.2,25.661,1.44
	c18.643-1.537,22.781-8.048,22.781-12.273c0-1.158-0.625-2.848-1.255-3.833c0.846,1.125,1.645,2.284,2.382,3.487
	c1.432,2.481,1.247,3.467,1.247,3.899c0,8.644-16.088,14.278-26.844,17.224C28.271,50.414,5.75,40.134,5.75,29.714z"/>
<path id="backstripes" fill="#026EA0" d="M2.621,48.206c-0.119-0.414-0.216-0.824-0.273-1.236c0.066,1.051,0.174,2.081,0.315,3.107
	C2.599,49.45,2.588,48.833,2.621,48.206z M3.813,32.585c-0.271,0.951-0.5,1.928-0.705,2.914c0.108-0.381,0.282-0.793,0.498-1.237
	C3.594,33.679,3.682,33.114,3.813,32.585z M6.314,62.286c0.986,2.113,2.156,4.127,3.455,6.025c-0.703-1.137-1.288-2.32-1.755-3.545
	C7.312,63.901,6.748,63.065,6.314,62.286z M11.698,26.149c-0.531-0.402-0.996-0.813-1.388-1.225
	c-1.852,1.278-3.389,2.643-4.549,4.083C5.75,29.235,5.75,29.475,5.75,29.714c0,0.453,0.044,0.92,0.132,1.373
	C7.3,29.495,9.249,27.783,11.698,26.149z M79.327,25.736c1.149,0.599,2.189,1.235,3.109,1.919c0.196-0.649,0.293-1.32,0.293-2.005
	c0-0.421,0.172-1.398-1.191-3.813c-0.738-1.201-1.526-2.372-2.4-3.516c0.612,0.971,1.218,2.628,1.218,3.775
	C80.355,23.19,80.073,24.448,79.327,25.736L79.327,25.736z M9.271,20.581c-0.119,0.184-0.238,0.368-0.357,0.553l0.205-0.238
	C9.164,20.786,9.216,20.688,9.271,20.581z M69.144,9.942c1.7,0.694,3.262,1.55,4.636,2.6l-0.236-0.313
	c-1.378-1.235-2.827-2.384-4.358-3.435c-0.39-0.238-0.799-0.467-1.224-0.671C68.592,8.687,69.003,9.294,69.144,9.942z
	 M76.999,69.784c-0.11,0.615-0.26,1.223-0.434,1.82c3.488-3.109,5.384-6.033,6.228-7.486l0.088-0.164l-0.033-0.313
	C81.549,65.558,79.586,67.702,76.999,69.784z M25.272,69.784c0-1.887,0.456-3.684,1.279-5.363c-1.063-0.283-2.103-0.586-3.109-0.898
	c-0.813,1.768-1.257,3.66-1.257,5.621c0,0.889,0.097,1.766,0.271,2.611c1.051,0.336,2.112,0.619,3.173,0.867
	C25.391,71.702,25.272,70.759,25.272,69.784z M86.574,34.015c-0.099-0.402-0.196-0.803-0.304-1.214
	c-0.062-0.142-0.128-0.282-0.205-0.413c0.185,1.063,0.143,1.809,0.143,2.156c0,0.692-0.284,2.558-1.583,4.821
	c0.595,0.683,1.117,1.396,1.548,2.133c0.813-2.112,0.792-3.649,0.792-4.095C86.966,36.723,86.878,35.397,86.574,34.015
	L86.574,34.015z M86.541,50.632c-0.399,0.863-0.932,1.819-1.604,2.814c0.185,0.619,0.304,1.225,0.37,1.801
	c0.703-1.206,1.167-2.32,1.484-3.261C86.726,51.562,86.649,51.108,86.541,50.632z M81.937,59.687
	c-0.236-0.639-0.498-1.268-0.8-1.885c-1.365,1.246-3.01,2.49-4.961,3.651c0.292,0.78,0.542,1.591,0.713,2.405
	C78.948,62.479,80.606,61.075,81.937,59.687z M17.635,22.877c4.508-2.06,10.042-3.683,16.573-4.366
	c-2.242-0.293-4.301-0.682-6.12-1.17c-4.281,1.182-8.298,2.6-11.808,4.236C16.659,22.012,17.113,22.444,17.635,22.877z
	 M6.855,58.474c0-1.225,0.139-2.427,0.39-3.596c-0.616-0.586-1.202-1.172-1.722-1.779c-0.39,1.734-0.498,3.479-0.293,5.223
	c0.563,1.105,1.191,2.123,1.885,3.088C6.941,60.444,6.855,59.458,6.855,58.474z M5.252,38.337c-1.117,1.527-1.962,3.195-2.469,5.016
	c0.128,0.553,0.302,1.113,0.507,1.668c0.641-1.811,1.702-3.588,3.109-5.276C5.979,39.288,5.589,38.823,5.252,38.337 M20.038,12.921
	c-1.916,0.803-3.638,1.638-5.111,2.46c-0.26,0.792-0.337,1.431-0.357,1.831c1.883-0.976,4.138-1.973,6.65-2.946
	C20.698,13.832,20.311,13.388,20.038,12.921z M74.02,15.272c-1.962-0.682-4.3-1.181-6.912-1.527
	c-3.043,2.34-9.198,4.225-16.866,4.971c4.821,0.49,10.693,1.322,16.292,2.623C70.77,19.292,73.271,17.158,74.02,15.272z
	 M66.405,65.548c0.39,1.029,0.639,2.102,0.735,3.195c1.255-0.465,2.425-0.953,3.521-1.449c-0.141-0.99-0.39-1.951-0.749-2.895
	C68.807,64.81,67.649,65.202,66.405,65.548z M62.591,79.532c2.004-0.682,3.834-1.453,5.503-2.275
	c0.641-0.898,1.169-1.84,1.592-2.828c-1.387,0.695-2.883,1.355-4.453,1.941C64.52,77.507,63.63,78.567,62.591,79.532z
	 M12.792,69.327c0.368,1.563,0.951,3.055,1.724,4.506c1.515,1.256,3.14,2.342,4.829,3.273c-1.224-1.648-2.167-3.422-2.761-5.285
	C15.197,71.042,13.94,70.204,12.792,69.327z M79.131,45.28c1.008,0.846,1.874,1.676,2.601,2.512c1.05-0.996,1.896-1.972,2.557-2.891
	c-0.498-0.869-1.081-1.734-1.788-2.611C81.604,43.286,80.499,44.306,79.131,45.28z M8.058,52.155
	c1.061-2.726,2.796-5.271,5.08-7.559c-0.769-0.391-1.504-0.813-2.2-1.236c-2.004,2.191-3.552,4.55-4.539,6.99
	C6.897,50.967,7.461,51.575,8.058,52.155z M85.958,31.716c-0.044-0.14-0.097-0.291-0.144-0.432c0.036,0.118,0.066,0.227,0.088,0.335
	L85.958,31.716z M27.069,76.097c-1.178-0.379-2.372-0.787-3.585-1.234c0.964,2.072,2.449,3.965,4.342,5.613
	c1.572,0.432,3.121,0.779,4.626,1.051C30.167,80.044,28.315,78.188,27.069,76.097z M39.072,33.786
	c-3.021-0.314-5.556-0.652-7.159-0.856c-1.042-0.129-2.059-0.282-3.045-0.456c-5.752,1.82-10.801,4.574-14.745,7.854
	c0.804,0.445,1.649,0.869,2.548,1.27C22.411,37.414,30.255,34.567,39.072,33.786 M15.825,67.095c0-2.045,0.357-4.061,1.053-5.987
	c-1.161-0.509-2.299-1.097-3.414-1.724c-0.735,1.959-1.127,4.021-1.127,6.133c0,0.42,0.022,0.834,0.055,1.244
	c1.136,0.855,2.33,1.613,3.563,2.285C15.869,68.399,15.825,67.747,15.825,67.095z M27.806,49.558
	c-1.061-0.216-2.112-0.465-3.153-0.725c-0.671-0.174-1.332-0.346-1.993-0.544c-3.466,2.407-6.219,5.3-8.005,8.526
	c1.095,0.542,2.264,1.039,3.5,1.484c1.039-1.841,2.404-3.541,4.104-5.039C23.862,51.856,25.728,50.618,27.806,49.558z
	 M17.159,29.161c-3.35,1.635-6.622,3.672-9.253,6.163c0.401,0.51,0.854,1.007,1.366,1.495c2.869-2.534,6.489-4.811,10.495-6.652
	C18.848,29.843,17.97,29.507,17.159,29.161z M73.033,48.584c-1.907,0.769-4.085,1.46-6.564,2.034
	c1.799,1.096,3.424,2.319,4.832,3.674c2.023-0.877,3.79-1.788,5.32-2.709C75.535,50.522,74.343,49.513,73.033,48.584z
	 M67.986,38.878c2.264-0.922,4.453-1.939,6.424-3.066c-2.048-1.094-4.431-2.09-7.194-2.925c-2.676,0.661-5.86,1.171-9.641,1.483
	c-1.125,0.098-2.283,0.151-3.477,0.185c2.645,0.499,5.18,1.183,7.571,1.971C63.987,37.296,66.079,38.075,67.986,38.878z
	 M77.453,33.853c2.156-1.595,3.803-3.361,4.649-5.3c-1.031-0.639-2.202-1.233-3.468-1.786c-1.255,1.612-3.314,3.207-6.532,4.539
	C73.998,32.075,75.797,32.93,77.453,33.853z M53.197,52.095c-2.717-0.012-6.413-0.133-10.581-0.457
	c-7.388,0.855-13.673,4.16-17.247,8.732c1.183,0.271,2.35,0.498,3.499,0.691c3.768-4.136,10.139-6.857,17.364-6.857
	c5.276,0,10.099,1.439,13.781,3.836c1.429-0.357,2.796-0.736,4.074-1.127C61.15,54.659,57.412,52.971,53.197,52.095z M52.342,26.04
	c2.913-0.637,5.536-1.396,7.855-2.166c1.277-0.422,2.458-0.866,3.554-1.299c-3.261-0.606-6.166-0.986-8.126-1.159
	c-7.452-0.685-18.546,1.438-21.417,2.036c-0.888,0.174-4.937,1.018-9.879,2.738c1.159,0.349,2.449,0.642,3.845,0.879
	c4.475-1.257,9.101-1.961,13.485-1.961C44.564,25.108,48.282,25.411,52.342,26.04z M55.885,42.874
	c0.727-0.205,1.484-0.41,2.253-0.639c-3.314-0.715-6.835-1.094-10.498-1.094c-6.923,0-13.389,1.376-18.85,3.76
	C36.615,45.995,45.918,45.593,55.885,42.874z"/>
<path id="forestripes" fill="#FFFFFF" d="M3.834,32.497c0.68-2.449,1.581-4.799,2.662-7.043c-0.487,1.15-0.747,2.428-0.747,4.26
	c0,10.42,22.521,20.7,50.135,13.16c10.755-2.945,26.844-8.58,26.844-17.224c0-0.433,0.185-1.418-1.247-3.899
	c1.788,2.914,3.229,6.045,4.29,9.369c0.509,1.734,0.436,2.959,0.436,3.424c0,2.125-2.647,15.09-28.546,17.451
	c-2.244,0.195-18.698,0.456-33.01-3.162c-9.522-2.405-19.077-7.064-20.885-13.531C3.486,34.294,3.619,33.362,3.834,32.497z
	 M44.111,73.847C38.716,74.44,7.364,75.862,2.804,50.978c0.641,3.975,1.83,7.754,3.488,11.277c1.962,3.553,6.857,8.416,13.93,11.344
	c36.769,15.188,59.387-2.895,63.742-11.877c1.753-3.867,2.946-8.035,3.488-12.41C86.931,52.636,83.542,69.47,44.111,73.847z
	 M43.179,82.456c-6.512,0-20.682-1.049-29.9-9.715c7.822,8.654,19.143,14.094,31.73,14.094c16.377,0,30.614-9.209,37.794-22.738
	C80.573,67.974,70.736,82.456,43.179,82.456z M17.937,61.56c9.251,3.783,23.93,6.654,32.272,6.359
	c30.083-1.082,36.747-16.271,37.449-20.7c0.066-1.042,0.108-2.092,0.108-3.144c0-3.496-0.41-6.889-1.213-10.148
	c0.326,1.408,0.414,2.783,0.414,3.477c0,1.463,0.282,14.604-29.729,21.297c-17.98,4.01-25.575,3.881-37.946-0.011
	C8.47,55.265,2.555,47.338,2.394,40.536c-0.101,1.17-0.143,2.35-0.143,3.539c0,0.977,0.022,1.93,0.097,2.895
	C3.129,52.614,10.496,58.528,17.937,61.56z M31.913,32.93c4.506,0.575,16.432,2.2,25.661,1.44
	c18.643-1.537,22.781-8.048,22.781-12.273c0-1.158-0.625-2.848-1.255-3.833c-1.658-2.19-3.532-4.215-5.567-6.046
	c0.528,0.574,0.702,1.301,0.725,1.745c0.171,2.88-4.539,6.747-14.061,9.911c-5.937,1.971-13.801,3.855-23.541,3.855
	c-16.435,0-22.098-6.228-22.098-10.127c0-0.412-0.088-3.75,3.726-6.912c-3.488,2.783-6.523,6.109-8.98,9.848
	c-0.271,0.443-0.423,0.951-0.423,1.559C8.881,26.072,18.619,31.241,31.913,32.93z M19.669,11.742
	c0.306,4.277,11.656,7.646,25.349,7.301c13.695-0.358,24.181-4.29,24.181-8.579c0-1.225-0.92-2.33-2.548-3.272
	c-6.346-3.739-13.746-5.883-21.642-5.883c-8.256,0-15.948,2.341-22.479,6.382C20.59,8.925,19.573,10.321,19.669,11.742z"/>
<path d="M125.694,59.29c-0.275-0.774-0.353-1.629-0.372-2.004l-0.024-15.516c0-7.455-5.276-10.108-10.211-10.108
	c-3.909,0-7.472,1.024-9.767,2.555c-0.415,0.298-0.463,0.743-0.242,1.105l1.816,2.458c0.447,0.498,0.892,0.361,1.357,0.016
	c1.792-1.116,3.91-1.757,6.066-1.757c6.089,0,5.91,4.768,5.91,5.388c0,0.315-0.191,0.395-0.421,0.389l-0.939-0.02
	c-4.724-0.174-16.712,1.436-16.712,10.939c0,5.58,4.654,8.428,8.993,8.428c4.206,0,7.589-1.67,9.285-3.725
	c0.095-0.114,0.204-0.002,0.204,0.055c-0.003,0.26,0,0.851,0.055,1.363c0.093,1.258,0.339,1.646,0.944,1.703l3.374,0.002
	c0.438,0,0.795-0.354,0.795-0.777C125.807,59.647,125.694,59.29,125.694,59.29z M120.446,48.238
	c-0.688,4.874-3.087,7.683-7.516,8.41c-3.118,0.513-5.943-0.771-6.095-4.109c-0.17-3.669,4.093-6.749,11.961-6.411
	c0,0,0.58,0.033,0.967,0.082C120.65,46.319,120.652,46.782,120.446,48.238z"/>
<path d="M137.633,24.272l-3.526,0.271c-0.425,0-0.791,0.363-0.791,0.808v5.914c0,0.234-0.191,0.422-0.427,0.422l-4.268-0.004
	c-0.447,0-0.813,0.363-0.813,0.808l-0.009,2.985c0.009,0.221,0.099,0.424,0.255,0.568c0.159,0.15,0.366,0.229,0.584,0.225h4.254
	c0.233,0,0.426,0.189,0.426,0.422l-0.003,14.254c0,7.65,5.759,10.379,10.811,10.379c0,0,0.595,0.012,1.053-0.035
	c0.458-0.042,0.802-0.361,0.802-0.807v-2.799c0-0.444-0.357-0.801-0.898-0.801c-4.339,0-6.624-2.299-6.624-6.831V36.69
	c0-0.232,0.189-0.422,0.425-0.422h6.8c0.447,0,0.811-0.363,0.811-0.807v-2.965c0-0.447-0.363-0.811-0.811-0.811h-6.78
	c-0.246,0-0.444-0.195-0.444-0.441v-6.139C138.473,24.674,138.118,24.272,137.633,24.272L137.633,24.272z"/>
<path d="M163.3,54.154c-1.396,1.661-2.934,2.78-5.164,2.78c-2.645,0-4.715-1.902-4.715-4.325c0-2.149,0.918-3.429,3.638-5.069
	c0.189-0.109,0.401-0.088,0.533,0.045l5.675,5.938C163.474,53.77,163.38,53.88,163.3,54.154L163.3,54.154z M158.66,41.772
	c-0.152,0.082-0.42,0.051-0.541-0.078c-0.835-0.912-1.842-2.388-1.842-3.439c0-1.785,1.277-3.176,3.155-3.176
	c1.813,0,2.79,1.25,2.79,2.777C162.223,39.643,160.58,40.701,158.66,41.772z M174.737,59.093l-5.406-5.582
	c-0.158-0.131-0.225-0.396-0.077-0.61l4.125-6.944c0.092-0.188,0.101-0.327,0.101-0.39c0-0.438-0.354-0.796-0.795-0.796h-3.021
	c-0.307,0-0.573,0.157-0.721,0.412l-2.613,4.516c-0.119,0.172-0.379,0.216-0.568,0.088l-4.222-4.344
	c-0.134-0.252-0.027-0.34,0.063-0.582c2.413-1.411,5.132-3.451,5.132-7.049c0-4.129-2.964-6.9-7.374-6.9
	c-4.323,0-7.6,2.893-7.6,7.209c0,1.901,0.793,3.793,2.497,5.967c0.037,0.271-0.018,0.369-0.104,0.438
	c-3.596,2.043-5.408,4.749-5.408,8.059c0,5.615,4.697,8.555,9.344,8.555c3.186,0,5.672-1.224,8.09-4.004
	c0.168-0.168,0.432-0.168,0.595-0.006l2.939,3.043c0.194,0.192,0.396,0.271,0.606,0.271l3.84,0.004c0.442,0,0.804-0.361,0.804-0.799
	C174.964,59.44,174.878,59.24,174.737,59.093z"/>
<path d="M191.771,57.683c0-0.314-0.234-0.861-0.982-0.799c-4.34,0-6.54-2.301-6.54-6.833V36.69c0-0.232,0.191-0.422,0.425-0.422
	h6.801c0.449,0,0.814-0.363,0.814-0.807v-2.965c0-0.447-0.365-0.811-0.814-0.811h-6.778c-0.249,0-0.447-0.195-0.447-0.441v-6.139
	c0-0.629-0.529-0.859-0.867-0.834l-3.479,0.271c-0.43,0-0.795,0.363-0.795,0.808v5.914c0,0.234-0.191,0.422-0.423,0.422
	l-4.272-0.004c-0.444,0-0.808,0.363-0.808,0.808l-0.007,2.985c-0.001,0.469,0.406,0.793,0.835,0.793h4.254
	c0.231,0,0.423,0.189,0.423,0.422v14.254c0,7.65,5.759,10.379,10.808,10.379c0,0,0.6,0.012,1.058-0.035
	c0.456-0.042,0.797-0.361,0.797-0.807V57.683z"/>
</svg>
