<?xml version="1.0" encoding="utf-8"?>
<!-- Generator: Adobe Illustrator 15.0.2, SVG Export Plug-In . SVG Version: 6.00 Build 0)  -->
<!DOCTYPE svg PUBLIC "-//W3C//DTD SVG 1.1//EN" "http://www.w3.org/Graphics/SVG/1.1/DTD/svg11.dtd" [
	<!ENTITY ns_extend "http://ns.adobe.com/Extensibility/1.0/">
	<!ENTITY ns_ai "http://ns.adobe.com/AdobeIllustrator/10.0/">
	<!ENTITY ns_graphs "http://ns.adobe.com/Graphs/1.0/">
	<!ENTITY ns_vars "http://ns.adobe.com/Variables/1.0/">
	<!ENTITY ns_imrep "http://ns.adobe.com/ImageReplacement/1.0/">
	<!ENTITY ns_sfw "http://ns.adobe.com/SaveForWeb/1.0/">
	<!ENTITY ns_custom "http://ns.adobe.com/GenericCustomNamespace/1.0/">
	<!ENTITY ns_adobe_xpath "http://ns.adobe.com/XPath/1.0/">
]>
<svg version="1.1" id="Layer_1" xmlns:x="&ns_extend;" xmlns:i="&ns_ai;" xmlns:graph="&ns_graphs;"
	 xmlns="http://www.w3.org/2000/svg" xmlns:xlink="http://www.w3.org/1999/xlink" x="0px" y="0px" width="170px" height="92.5px"
	 viewBox="0 0 170 92.5" enable-background="new 0 0 170 92.5" xml:space="preserve">
<metadata>
	<sfw  xmlns="&ns_sfw;">
		<slices></slices>
		<sliceSourceBounds  height="88.098" width="167.031" x="238.879" y="204.257" bottomLeftOrigin="true"></sliceSourceBounds>
	</sfw>
</metadata>
<g>
	<g>
		<g>
			<path fill="#C82027" d="M66.355,82.261l-0.028,6.663l0.487,0.083c1.529,0.285,3.073,0.483,4.624,0.595
				c1.359,0.125,2.726,0.152,4.087,0.08c1.303-0.095,2.589-0.337,3.836-0.724c1.464-0.414,2.82-1.138,3.979-2.122
				c1.043-0.89,1.841-2.034,2.317-3.322c0.83-2.154,0.813-4.544-0.047-6.688c-0.452-1.111-1.165-2.099-2.079-2.877
				c-0.881-0.796-1.92-1.4-3.047-1.775l-5.023-1.864c-0.602-0.256-1.09-0.72-1.373-1.308c-0.222-0.488-0.201-1.053,0.056-1.524
				c0.09-0.165,0.202-0.317,0.336-0.45c0.153-0.157,0.325-0.293,0.514-0.407c0.074-0.047,0.15-0.089,0.228-0.129
				c0.562-0.277,1.167-0.454,1.791-0.521c1.064-0.154,2.145-0.143,3.205,0.034c1.252,0.135,2.494,0.357,3.715,0.665l0.26,0.057
				v-6.146l-0.479-0.104c-1.245-0.298-2.508-0.523-3.778-0.673c-1.649-0.22-3.319-0.228-4.97-0.021
				c-2.092,0.191-4.08,0.99-5.721,2.301c-1.112,0.873-1.959,2.04-2.444,3.368c-0.729,2.023-0.732,4.238-0.006,6.263
				c0.375,1.008,0.977,1.915,1.757,2.651c0.676,0.653,1.443,1.208,2.275,1.647c1.094,0.589,2.254,1.045,3.457,1.357
				c0.396,0.119,0.792,0.245,1.184,0.377l0.595,0.218c0.058,0.022,0.113,0.047,0.171,0.07c0.587,0.209,1.123,0.54,1.573,0.971
				c0.313,0.293,0.555,0.654,0.705,1.056c0.092,0.367,0.094,0.751,0.004,1.118c-0.188,0.594-0.602,1.089-1.15,1.38
				c-0.598,0.312-1.246,0.515-1.916,0.6c-0.981,0.155-1.979,0.205-2.972,0.149c-1.3-0.099-2.595-0.271-3.875-0.518
				c-0.67-0.137-1.337-0.293-1.999-0.467L66.355,82.261"/>
		</g>
		<g>
			<path fill="#C82027" d="M39.038,88.681v-7.735l-0.152,0.066c-1.744,0.845-3.641,1.325-5.576,1.416
				c-2.011,0.156-4.009-0.433-5.613-1.655c-1.146-0.884-1.998-2.094-2.444-3.471c-0.492-1.499-0.549-3.108-0.164-4.641
				c0.358-1.565,1.235-2.964,2.488-3.968c1.112-0.93,2.47-1.516,3.909-1.687c2.545-0.282,5.115,0.201,7.385,1.387l0.167,0.086
				v-7.781l-0.354-0.095c-2.271-0.729-4.656-1.041-7.04-0.921c-2.171,0.056-4.308,0.544-6.287,1.438
				c-1.998,0.914-3.759,2.275-5.147,3.978c-4.343,5.493-4.458,13.217-0.283,18.838c2.055,2.63,4.94,4.484,8.186,5.264
				c3.42,0.831,7.003,0.706,10.356-0.363L39.038,88.681"/>
		</g>
		<g>
			<polyline fill="#C82027" points="56.437,89.192 56.437,60.178 49.121,60.178 49.121,89.192 56.437,89.192 			"/>
		</g>
		<g>
			<polyline fill="#C82027" points="164.718,85.822 164.718,85.383 161.621,85.383 161.621,85.822 162.91,85.822 162.91,89.192 
				163.43,89.192 163.43,85.822 164.718,85.822 			"/>
		</g>
		<g>
			<polyline fill="#C82027" points="165.019,89.192 165.512,89.192 165.512,86.151 165.577,86.151 166.689,89.192 167.187,89.192 
				168.389,86.004 168.389,89.192 168.91,89.192 168.91,85.383 168.105,85.383 166.978,88.521 165.835,85.383 165.019,85.383 
				165.019,89.192 			"/>
		</g>
		<g>
			<path fill="#2883BA" d="M1.879,36.858c0.068,0.913,0.479,1.767,1.15,2.39s1.553,0.969,2.468,0.969
				c0.916,0,1.797-0.346,2.468-0.969s1.082-1.477,1.15-2.39v-8.041c-0.037-0.936-0.434-1.82-1.108-2.469
				c-0.675-0.647-1.574-1.009-2.51-1.009c-0.936,0-1.834,0.361-2.509,1.009c-0.675,0.648-1.072,1.533-1.109,2.469V36.858"/>
		</g>
		<g>
			<path fill="#2883BA" d="M21.908,36.858c0.068,0.913,0.479,1.767,1.149,2.39s1.553,0.969,2.469,0.969s1.797-0.346,2.468-0.969
				s1.082-1.477,1.15-2.39V18.83c-0.037-0.935-0.434-1.818-1.108-2.467s-1.574-1.011-2.509-1.011c-0.936,0-1.835,0.362-2.509,1.011
				c-0.675,0.648-1.072,1.532-1.109,2.467V36.858"/>
		</g>
		<g>
			<path fill="#2883BA" d="M41.83,44.119c0.068,0.912,0.479,1.768,1.15,2.39c0.671,0.623,1.552,0.969,2.468,0.969
				c0.916,0,1.797-0.346,2.468-0.969c0.671-0.622,1.082-1.478,1.149-2.39V5.123c-0.037-0.936-0.434-1.818-1.108-2.467
				c-0.674-0.649-1.574-1.012-2.509-1.012s-1.835,0.362-2.509,1.012c-0.674,0.648-1.072,1.531-1.109,2.467V44.119"/>
		</g>
		<g>
			<path fill="#2883BA" d="M61.856,36.858c0.068,0.913,0.479,1.767,1.149,2.39s1.553,0.969,2.468,0.969
				c0.916,0,1.797-0.346,2.469-0.969s1.082-1.477,1.149-2.39V18.83c-0.036-0.935-0.435-1.818-1.108-2.467
				c-0.674-0.648-1.574-1.011-2.51-1.011s-1.835,0.362-2.509,1.011c-0.675,0.648-1.072,1.532-1.109,2.467V36.858"/>
		</g>
		<g>
			<path fill="#2883BA" d="M81.793,36.858c0.068,0.913,0.479,1.767,1.15,2.39c0.671,0.623,1.553,0.969,2.469,0.969
				c0.915,0,1.797-0.346,2.468-0.969s1.081-1.477,1.149-2.39v-8.041c-0.036-0.936-0.434-1.82-1.108-2.469
				c-0.675-0.647-1.573-1.009-2.509-1.009c-0.938,0-1.836,0.361-2.51,1.009c-0.675,0.648-1.072,1.533-1.109,2.469V36.858"/>
		</g>
		<g>
			<path fill="#2883BA" d="M101.804,36.858c0.068,0.913,0.479,1.767,1.15,2.39c0.67,0.623,1.553,0.969,2.468,0.969
				s1.797-0.346,2.468-0.969c0.672-0.623,1.082-1.477,1.15-2.39V18.83c-0.036-0.935-0.434-1.818-1.108-2.467
				s-1.573-1.011-2.51-1.011s-1.835,0.362-2.51,1.011s-1.072,1.532-1.108,2.467V36.858"/>
		</g>
		<g>
			<path fill="#2883BA" d="M121.732,44.119c0.069,0.912,0.479,1.768,1.15,2.39c0.671,0.623,1.552,0.969,2.468,0.969
				c0.915,0,1.798-0.346,2.47-0.969c0.67-0.622,1.081-1.478,1.148-2.39V5.123c-0.037-0.936-0.435-1.818-1.109-2.467
				c-0.673-0.649-1.573-1.012-2.509-1.012c-0.935,0-1.834,0.362-2.509,1.012c-0.675,0.648-1.072,1.531-1.109,2.467V44.119"/>
		</g>
		<g>
			<path fill="#2883BA" d="M141.728,36.858c0.067,0.913,0.478,1.767,1.148,2.39c0.672,0.623,1.553,0.969,2.469,0.969
				s1.798-0.346,2.469-0.969s1.081-1.477,1.15-2.39V18.83c-0.038-0.935-0.435-1.818-1.109-2.467s-1.574-1.011-2.51-1.011
				s-1.835,0.362-2.509,1.011s-1.071,1.532-1.108,2.467V36.858"/>
		</g>
		<g>
			<path fill="#2883BA" d="M161.675,36.858c0.067,0.913,0.477,1.767,1.148,2.39c0.67,0.623,1.553,0.969,2.468,0.969
				c0.916,0,1.797-0.346,2.469-0.969c0.671-0.623,1.083-1.477,1.15-2.39v-8.041c-0.038-0.936-0.435-1.82-1.108-2.469
				c-0.676-0.647-1.574-1.009-2.511-1.009c-0.934,0-1.835,0.361-2.508,1.009c-0.675,0.648-1.073,1.533-1.108,2.469V36.858"/>
		</g>
		<g>
			<path fill="#C82027" d="M115.481,88.681v-7.735l-0.152,0.066c-1.744,0.845-3.641,1.325-5.576,1.416
				c-2.011,0.156-4.008-0.433-5.612-1.655c-1.146-0.884-1.997-2.094-2.444-3.471c-0.492-1.499-0.55-3.108-0.164-4.641
				c0.357-1.565,1.235-2.964,2.489-3.968c1.111-0.93,2.47-1.516,3.908-1.687c2.545-0.282,5.115,0.201,7.386,1.387l0.166,0.086
				v-7.781l-0.354-0.095c-2.272-0.729-4.656-1.041-7.04-0.921c-2.171,0.056-4.308,0.544-6.287,1.438
				c-1.998,0.915-3.758,2.276-5.147,3.979c-4.343,5.493-4.457,13.217-0.282,18.838c2.055,2.63,4.94,4.484,8.185,5.264
				c3.421,0.831,7.003,0.706,10.357-0.363L115.481,88.681"/>
		</g>
		<g>
			<g>
				<path fill="#C82027" d="M123.189,74.696c0.071,4.588,2.202,8.898,5.799,11.743c3.6,2.844,8.288,3.918,12.766,2.927
					c6.081-1.145,10.821-5.932,11.906-12.024c1.085-6.092-1.712-12.22-7.023-15.394c-4.692-2.903-10.579-3.069-15.426-0.433
					C126.365,64.15,123.302,69.182,123.189,74.696 M133.811,68.744c1.582-1.262,3.599-1.845,5.611-1.619
					c2.01,0.226,3.849,1.24,5.111,2.821s1.846,3.6,1.62,5.609c-0.226,2.012-1.24,3.851-2.821,5.113
					c-1.582,1.263-3.599,1.846-5.611,1.62c-2.009-0.225-3.849-1.239-5.111-2.821c-1.263-1.581-1.846-3.599-1.62-5.61
					C131.215,71.847,132.229,70.007,133.811,68.744"/>
			</g>
		</g>
	</g>
</g>
</svg>
