<?xml version="1.0" encoding="utf-8"?>
<!-- Generator: Adobe Illustrator 15.0.2, SVG Export Plug-In . SVG Version: 6.00 Build 0)  -->
<!DOCTYPE svg PUBLIC "-//W3C//DTD SVG 1.1//EN" "http://www.w3.org/Graphics/SVG/1.1/DTD/svg11.dtd" [
	<!ENTITY ns_extend "http://ns.adobe.com/Extensibility/1.0/">
	<!ENTITY ns_ai "http://ns.adobe.com/AdobeIllustrator/10.0/">
	<!ENTITY ns_graphs "http://ns.adobe.com/Graphs/1.0/">
	<!ENTITY ns_vars "http://ns.adobe.com/Variables/1.0/">
	<!ENTITY ns_imrep "http://ns.adobe.com/ImageReplacement/1.0/">
	<!ENTITY ns_sfw "http://ns.adobe.com/SaveForWeb/1.0/">
	<!ENTITY ns_custom "http://ns.adobe.com/GenericCustomNamespace/1.0/">
	<!ENTITY ns_adobe_xpath "http://ns.adobe.com/XPath/1.0/">
]>
<svg version="1.1" id="Layer_1" xmlns:x="&ns_extend;" xmlns:i="&ns_ai;" xmlns:graph="&ns_graphs;"
	 xmlns="http://www.w3.org/2000/svg" xmlns:xlink="http://www.w3.org/1999/xlink" x="0px" y="0px" width="179.5px" height="53.5px"
	 viewBox="0 0 179.5 53.5" enable-background="new 0 0 179.5 53.5" xml:space="preserve">
<metadata>
	<sfw  xmlns="&ns_sfw;">
		<slices></slices>
		<sliceSourceBounds  height="49.896" width="174.373" x="230.384" y="350.037" bottomLeftOrigin="true"></sliceSourceBounds>
	</sfw>
</metadata>
<path fill="#EC412E" d="M171.24,8.034c-4.345-4.313-10.533-6.468-18.564-6.468c-7.832,0-13.943,2.194-18.332,6.583
	c-3.305,3.304-5.361,7.598-6.178,12.879c-0.195-1.375-0.455-2.72-0.806-4.025c-0.79-2.94-2.063-5.519-3.818-7.735
	c-1.756-2.216-3.977-3.916-6.665-5.101c-2.688-1.186-6.215-1.778-10.582-1.778h-22.15v5.603c-0.512-0.76-1.116-1.479-1.839-2.146
	c-2.49-2.305-6.061-3.457-10.712-3.457H43.682v5.348c-0.476-0.667-1.032-1.298-1.674-1.892c-2.491-2.305-6.062-3.457-10.713-3.457
	H3.384v48.25h25.739c1.097,0,3.324-0.219,6.681-0.657c2.523-0.33,4.41-0.857,5.661-1.58c0.815-0.471,1.541-1.026,2.217-1.632v3.869
	h25.739c1.097,0,3.324-0.219,6.682-0.657c2.522-0.33,4.409-0.857,5.661-1.58c0.88-0.508,1.663-1.109,2.381-1.774v4.012h22.15
	c2.655,0,5.616-0.439,8.887-1.317c2.393-0.634,4.63-1.913,6.716-3.833c2.083-1.92,3.713-4.3,4.888-7.142
	c0.667-1.617,1.137-3.621,1.426-5.986c0.514,3.136,1.47,5.895,2.875,8.273c2.216,3.752,5.105,6.495,8.673,8.228
	c3.565,1.733,8.068,2.601,13.51,2.601c5.354,0,9.825-1.004,13.412-3.012c3.588-2.009,6.331-4.816,8.229-8.426
	c1.898-3.608,2.848-8.233,2.848-13.873C177.757,18.385,175.584,12.346,171.24,8.034z M18.426,12.164h6.583
	c2.26,0,3.846,0.396,4.756,1.185c0.911,0.791,1.366,1.888,1.366,3.292c0,1.513-0.455,2.672-1.366,3.473s-2.529,1.201-4.855,1.201
	h-6.484V12.164z M31.459,38.906c-1.053,0.912-2.863,1.365-5.431,1.365h-7.603v-9.775h7.57c2.611,0,4.438,0.435,5.48,1.3
	c1.042,0.868,1.563,2.015,1.563,3.44C33.04,36.772,32.513,37.997,31.459,38.906z M58.724,12.164h6.583
	c2.259,0,3.845,0.396,4.756,1.185c0.911,0.791,1.366,1.888,1.366,3.292c0,1.513-0.455,2.672-1.366,3.473s-2.529,1.201-4.855,1.201
	h-6.484V12.164z M37.877,24.968c2.282-0.79,4.016-1.865,5.2-3.227c0.215-0.246,0.416-0.5,0.604-0.758v6.532
	C42.17,26.39,40.242,25.536,37.877,24.968z M71.757,38.906c-1.053,0.912-2.863,1.365-5.431,1.365h-7.603v-9.775h7.57
	c2.612,0,4.438,0.435,5.48,1.3c1.042,0.868,1.563,2.015,1.563,3.44C73.337,36.772,72.811,37.997,71.757,38.906z M78.175,24.968
	c2.282-0.79,4.016-1.865,5.201-3.227c0.281-0.322,0.532-0.659,0.769-1.003v6.901C82.609,26.451,80.626,25.557,78.175,24.968z
	 M112.451,35.022c-0.748,1.723-1.779,2.931-3.094,3.621c-1.317,0.691-3.533,1.036-6.65,1.036h-3.652V13.316h3.72
	c3.86,0,6.625,0.943,8.293,2.83c1.667,1.888,2.501,5.387,2.501,10.499C113.568,30.509,113.197,33.3,112.451,35.022z M160.214,37.178
	c-1.756,2.086-4.235,3.128-7.438,3.128c-3.116,0-5.579-1.065-7.389-3.193c-1.811-2.128-2.716-5.627-2.716-10.5
	c0-4.914,0.91-8.436,2.731-10.564c1.821-2.128,4.234-3.192,7.241-3.192c3.137,0,5.623,1.048,7.455,3.144
	c1.831,2.096,2.748,5.415,2.748,9.956C162.847,31.354,161.969,35.094,160.214,37.178z"/>
</svg>
