<?xml version="1.0" encoding="utf-8"?>
<!-- Generator: Adobe Illustrator 15.0.2, SVG Export Plug-In . SVG Version: 6.00 Build 0)  -->
<!DOCTYPE svg PUBLIC "-//W3C//DTD SVG 1.1//EN" "http://www.w3.org/Graphics/SVG/1.1/DTD/svg11.dtd" [
	<!ENTITY ns_extend "http://ns.adobe.com/Extensibility/1.0/">
	<!ENTITY ns_ai "http://ns.adobe.com/AdobeIllustrator/10.0/">
	<!ENTITY ns_graphs "http://ns.adobe.com/Graphs/1.0/">
	<!ENTITY ns_vars "http://ns.adobe.com/Variables/1.0/">
	<!ENTITY ns_imrep "http://ns.adobe.com/ImageReplacement/1.0/">
	<!ENTITY ns_sfw "http://ns.adobe.com/SaveForWeb/1.0/">
	<!ENTITY ns_custom "http://ns.adobe.com/GenericCustomNamespace/1.0/">
	<!ENTITY ns_adobe_xpath "http://ns.adobe.com/XPath/1.0/">
]>
<svg version="1.1" id="Layer_1" xmlns:x="&ns_extend;" xmlns:i="&ns_ai;" xmlns:graph="&ns_graphs;"
	 xmlns="http://www.w3.org/2000/svg" xmlns:xlink="http://www.w3.org/1999/xlink" x="0px" y="0px" width="68.5px" height="59.667px"
	 viewBox="0 0 68.5 59.667" enable-background="new 0 0 68.5 59.667" xml:space="preserve">
<metadata>
	<sfw  xmlns="&ns_sfw;">
		<slices></slices>
		<sliceSourceBounds  y="333.845" x="325.446" width="67.88" height="58.763" bottomLeftOrigin="true"></sliceSourceBounds>
	</sfw>
</metadata>
<path fill="#0096FF" d="M68.326,28.35c0-1.547-0.617-2.938-1.723-3.932c-0.765-0.675-2.157-1.496-4.415-1.496H45.838
	c0.667-3.7,1.376-8.512,1.411-8.782c0.023-0.19,0.035-0.376,0.02-0.566c-0.333-4.868-3.391-10.666-3.523-10.904
	c-0.287-0.541-0.746-0.967-1.309-1.21c-1.172-0.48-2.316-0.733-3.41-0.733c-2.296,0-3.99,1.132-4.745,2.095
	c-0.373,0.495-0.567,1.086-0.559,1.702c0,0.065,0.159,6.268,0.179,8.207c-0.805,2.32-7.428,12.966-8.942,14.328
	c-0.386,0.329-0.933,0.729-1.551,1.153v0.001l-1.423,0.761c-0.256-1.197-0.788-2.467-2.825-2.604H3.09
	c-0.731,0-1.442,0.31-1.939,0.862c-0.51,0.538-0.755,1.918-0.695,2.652l2.131,27.161c0.107,1.369,1.251,2.444,2.641,2.444h14.306
	c1.182,0,2.315-0.694,2.51-2.305c0,0-0.003-0.551-0.008-1.497l2.741,0.009c0.204,0.095,0.597,0.347,0.862,0.519
	c1.057,0.677,2.503,1.606,4.289,1.606h24.282c4.864,0,8.133-3.759,8.133-7.265c0-0.805-0.165-1.557-0.475-2.241
	c1.563-1.4,2.466-3.314,2.466-5.156c0-0.805-0.159-1.557-0.469-2.241c1.562-1.403,2.462-3.314,2.462-5.167
	c0-0.794-0.16-1.555-0.473-2.23C67.417,32.116,68.326,30.205,68.326,28.35z M60.194,32.965c5.81,0,3.814,7.408-1.992,7.408
	c5.807,0,3.81,7.397-1.999,7.397c5.809,0,3.813,7.402-1.994,7.402c-3.044,0-15.581,0-24.282,0c-1.873,0-3.579-2.135-4.959-2.135
	c-0.589,0-1.376,0-1.839,0V31.391c1.225-0.788,2.771-1.651,3.561-2.323c1.939-1.646,9.868-14.471,9.868-16.074
	c0-1.602-0.181-8.538-0.181-8.538s0.837-1.082,2.649-1.082c0.666,0,1.451,0.146,2.38,0.533c0,0,2.921,5.485,3.217,9.849
	c0,0-1.31,8.995-2.021,11.813c0,0,15.607,0,19.586,0C67.996,25.567,66.004,32.965,60.194,32.965z"/>
</svg>
